<?xml version="1.0" encoding="UTF-8" standalone="no"?>
<svg
   xmlns:dc="http://purl.org/dc/elements/1.1/"
   xmlns:cc="http://creativecommons.org/ns#"
   xmlns:rdf="http://www.w3.org/1999/02/22-rdf-syntax-ns#"
   xmlns:svg="http://www.w3.org/2000/svg"
   xmlns="http://www.w3.org/2000/svg"
   xmlns:xlink="http://www.w3.org/1999/xlink"
   xmlns:sodipodi="http://sodipodi.sourceforge.net/DTD/sodipodi-0.dtd"
   xmlns:inkscape="http://www.inkscape.org/namespaces/inkscape"
   width="100"
   height="18"
   viewBox="0 0 26.458334 4.7624999"
   version="1.1"
   id="svg932"
   inkscape:version="1.0.1 (0767f8302a, 2020-10-17)"
   sodipodi:docname="icons.svg">
  <defs
     id="defs926">
    <clipPath
       id="clipPath20"
       clipPathUnits="userSpaceOnUse">
      <path
         id="path18"
         d="M 0,1178.69 V 0 h 6000.85 v 1178.69 z" />
    </clipPath>
    <clipPath
       id="clipPath20-3"
       clipPathUnits="userSpaceOnUse">
      <path
         id="path18-6"
         d="M 0,1178.69 V 0 h 6000.85 v 1178.69 z" />
    </clipPath>
    <linearGradient
       id="SVGID_1_"
       gradientUnits="userSpaceOnUse"
       x1="1037.974"
       y1="-220.14059"
       x2="1449.1095"
       y2="-631.276"
       gradientTransform="matrix(0.5,0,0,-0.5,-370.125,59.625)">
      <stop
         offset="0"
         style="stop-color:#3E2723;stop-opacity:0.2"
         id="stop1781" />
      <stop
         offset="1"
         style="stop-color:#3E2723;stop-opacity:0"
         id="stop1783" />
    </linearGradient>
    <radialGradient
       id="SVGID_2_"
       cx="763.48962"
       cy="103.2396"
       r="1186.0625"
       gradientTransform="matrix(0.5,0,0,-0.5,-370.125,59.625)"
       gradientUnits="userSpaceOnUse">
      <stop
         offset="0.32"
         style="stop-color:#FFFFFF"
         id="stop1798" />
      <stop
         offset="1"
         style="stop-color:#FFFFFF;stop-opacity:0"
         id="stop1800" />
    </radialGradient>
  </defs>
  <sodipodi:namedview
     id="base"
     pagecolor="#ffffff"
     bordercolor="#666666"
     borderopacity="1.0"
     inkscape:pageopacity="0.0"
     inkscape:pageshadow="2"
     inkscape:zoom="10.981085"
     inkscape:cx="43.228297"
     inkscape:cy="24.718398"
     inkscape:document-units="px"
     inkscape:current-layer="layer1"
     inkscape:document-rotation="0"
     showgrid="false"
     fit-margin-top="0"
     fit-margin-left="0"
     fit-margin-right="0"
     fit-margin-bottom="0"
     inkscape:window-width="1848"
     inkscape:window-height="1016"
     inkscape:window-x="72"
     inkscape:window-y="27"
     inkscape:window-maximized="1"
     inkscape:snap-object-midpoints="true"
     units="px" />
  <metadata
     id="metadata929">
    <rdf:RDF>
      <cc:Work
         rdf:about="">
        <dc:format>image/svg+xml</dc:format>
        <dc:type
           rdf:resource="http://purl.org/dc/dcmitype/StillImage" />
        <dc:title></dc:title>
      </cc:Work>
    </rdf:RDF>
  </metadata>
  <g
     inkscape:groupmode="layer"
     id="layer2"
     inkscape:label="Layer 2"
     sodipodi:insensitive="true"
     style="display:none">
    <image
       sodipodi:absref="/mnt/datassd/Projects/PersonalWebsite/icons.png"
       xlink:href="icons.png"
       transform="translate(-11.839405,54.684112)"
       y="-54.684113"
       x="11.839405"
       id="image1613"
       preserveAspectRatio="none"
       height="4.7624998"
       width="26.458334" />
  </g>
  <g
     inkscape:label="Layer 1"
     inkscape:groupmode="layer"
     id="layer1"
     transform="translate(-11.839405,54.684113)">
    <circle
       style="fill:#ffffff;stroke-width:0.529;stroke-linejoin:round"
       id="path1657"
       cx="19.247738"
       cy="-52.302864"
       r="2.1166668" />
    <rect
       style="fill:#ffffff;stroke-width:0.529;stroke-linejoin:round"
       id="rect1637"
       width="3.6513386"
       height="3.7330115"
       x="26.640434"
       y="-54.245743" />
    <path
       id="Path_2520"
       data-name="Path 2520"
       d="M 29.998497,-50.812567 H 29.37125 v -0.982296 c 0,-0.234238 -0.0042,-0.535774 -0.326234,-0.535774 -0.326692,0 -0.376676,0.255212 -0.376676,0.518721 v 0.999284 h -0.627247 v -2.019999 h 0.602157 v 0.276054 h 0.0084 a 0.65991674,0.65991674 0 0 1 0.594121,-0.326299 c 0.635742,0 0.752958,0.418165 0.752958,0.962172 z m -2.665149,-2.296183 a 0.3639996,0.3639996 0 1 1 0.363935,-0.364066 0.3639996,0.3639996 0 0 1 -0.363935,0.364066 m 0.313624,2.296183 h -0.627901 v -2.020064 h 0.627901 z m 2.664234,-3.606674 h -3.607327 a 0.30891944,0.30891944 0 0 0 -0.312382,0.30513 v 3.62229 a 0.30911544,0.30911544 0 0 0 0.312382,0.305456 h 3.607327 a 0.30976884,0.30976884 0 0 0 0.313624,-0.305456 v -3.622551 a 0.30957281,0.30957281 0 0 0 -0.313624,-0.30513"
       fill="#0a66c2"
       style="stroke-width:0.264582" />
    <g
       style="fill:none;stroke-width:63.9999"
       id="g1653"
       transform="matrix(0.00413411,0,0,0.00413411,17.131072,-54.41953)">
      <path
         fill-rule="evenodd"
         clip-rule="evenodd"
         d="M 8,0 C 3.58,0 0,3.58 0,8 c 0,3.54 2.29,6.53 5.47,7.59 0.4,0.07 0.55,-0.17 0.55,-0.38 0,-0.19 -0.01,-0.82 -0.01,-1.49 C 4,14.09 3.48,13.23 3.32,12.78 3.23,12.55 2.84,11.84 2.5,11.65 2.22,11.5 1.82,11.13 2.49,11.12 3.12,11.11 3.57,11.7 3.72,11.94 4.44,13.15 5.59,12.81 6.05,12.6 6.12,12.08 6.33,11.73 6.56,11.53 4.78,11.33 2.92,10.64 2.92,7.58 2.92,6.71 3.23,5.99 3.74,5.43 3.66,5.23 3.38,4.41 3.82,3.31 c 0,0 0.67,-0.21 2.2,0.82 0.64,-0.18 1.32,-0.27 2,-0.27 0.68,0 1.36,0.09 2,0.27 1.53,-1.04 2.2,-0.82 2.2,-0.82 0.44,1.1 0.16,1.92 0.08,2.12 0.51,0.56 0.82,1.27 0.82,2.15 0,3.07 -1.87,3.75 -3.65,3.95 0.29,0.25 0.54,0.73 0.54,1.48 0,1.07 -0.01,1.93 -0.01,2.2 0,0.21 0.15,0.46 0.55,0.38 C 13.71,14.53 16,11.53 16,8 16,3.58 12.42,0 8,0 Z"
         transform="scale(64)"
         fill="#1b1f23"
         id="path1642"
         style="stroke-width:460.751" />
    </g>
    <g
       id="g1721"
       transform="matrix(0.26458333,0,0,0.26458333,-47.27742,-95.829242)">
      <g
         fill="#ff6700"
         id="g1833"
         transform="matrix(0.13657704,0,0,0.13657867,296.42684,157.01098)"
         style="stroke-width:7.32183">
        <path
           class="st0"
           d="M 66.9,54.9 C 66.9,35.8 60.1,27.1 56.5,23.8 55.8,23.2 54.7,23.7 54.8,24.7 55.5,35.5 41.9,38.2 41.9,55.1 v 0.1 c 0,10.3 7.8,18.7 17.4,18.7 9.6,0 17.4,-8.4 17.4,-18.7 v -0.1 c 0,-4.8 -1.8,-9.4 -3.6,-12.8 -0.4,-0.7 -1.4,-0.4 -1.3,0.2 3.3,14.6 -4.9,23.6 -4.9,12.4 z"
           id="path1829"
           style="stroke-width:7.32183" />
        <path
           class="st0"
           d="M 46.2,95.2 C 45.8,95.2 45.3,95 45,94.7 L 0.5,50.2 c -0.6,-0.6 -0.6,-1.7 0,-2.4 l 47,-47 c 0.3,-0.2 0.7,-0.4 1.1,-0.4 h 13.5 c 0.8,0 1.3,0.5 1.5,1 0.2,0.5 0.2,1.2 -0.4,1.8 L 19.1,47.4 c -0.9,0.9 -0.9,2.3 0,3.2 l 34.9,35 c 0.6,0.6 0.6,1.7 0,2.4 l -6.7,6.8 C 47,95 46.6,95.2 46.2,95.2 Z m 8.9,7.8 c -0.8,0 -1.3,-0.5 -1.5,-1 -0.2,-0.5 -0.2,-1.2 0.4,-1.8 L 98.2,56 c 0.4,-0.4 0.7,-1 0.7,-1.6 0,-0.6 -0.2,-1.2 -0.7,-1.6 l -35,-35 c -0.6,-0.6 -0.6,-1.7 0,-2.4 L 70,8.6 c 0.3,-0.3 0.7,-0.5 1.2,-0.5 0.5,0 0.8,0.3 1.1,0.6 l 44.4,44.5 c 0.3,0.3 0.5,0.7 0.5,1.2 0,0.5 -0.2,0.9 -0.5,1.2 l -47,47 c -0.3,0.3 -0.7,0.5 -1.2,0.5 H 55.1 Z"
           id="path1831"
           style="stroke-width:7.32183" />
      </g>
    </g>
    <g
       clip-path="url(#clipPath20-3)"
       id="g16"
       transform="matrix(0.00359164,0,0,-0.00359156,22.061779,-50.186193)"
       style="stroke-width:9.8223">
      <path
         id="path24"
         style="fill:#bcbbbc;fill-opacity:1;fill-rule:nonzero;stroke:none;stroke-width:9.8223"
         d="M 840.719,105.18 V 420.691 H 945.883 V 0 H 0 V 420.691 H 105.164 V 105.18 h 735.555" />
      <path
         id="path26"
         style="fill:#f48023;fill-opacity:1;fill-rule:nonzero;stroke:none;stroke-width:9.8223"
         d="M 210.445,210.359 H 736.266 V 315.523 H 210.445 Z m 471.266,968.331 -84.383,-62.76 313.817,-421.914 84.382,62.761 z M 420.879,929.949 824.926,593.445 892.227,674.258 488.18,1010.76 Z M 288.973,696.102 765.637,474.109 810.035,569.441 333.371,791.434 Z M 220.887,449.711 735.469,341.562 757.098,444.48 242.516,552.629 220.887,449.711" />
    </g>
    <g
       id="g1805"
       transform="matrix(0.00967619,0,0,0.00967619,12.103988,-54.41953)"
       style="stroke-width:27.3438">
      <path
         fill="#ff9800"
         d="m 437.5,406.2 c 0,17.2 -14,31.2 -31.2,31.2 H 31.3 C 14,437.5 0,423.5 0,406.2 V 31.2 C 0,14 14,0 31.2,0 h 375 c 17.2,0 31.2,14 31.2,31.2 v 375 z"
         id="path1779"
         style="stroke-width:747.681" />
      <linearGradient
         id="linearGradient1927"
         gradientUnits="userSpaceOnUse"
         x1="1037.974"
         y1="-220.14059"
         x2="1449.1095"
         y2="-631.276"
         gradientTransform="matrix(0.5,0,0,-0.5,-370.125,59.625)">
        <stop
           offset="0"
           style="stop-color:#3E2723;stop-opacity:0.2"
           id="stop1923" />
        <stop
           offset="1"
           style="stop-color:#3E2723;stop-opacity:0"
           id="stop1925" />
      </linearGradient>
      <path
         fill="url(#SVGID_1_)"
         d="m 140.6,140.6 -24,180.3 116.7,116.6 h 173 c 17.2,0 31.2,-14 31.2,-31.2 V 274.9 L 279.2,116.6 Z"
         id="path1786"
         style="fill:url(#SVGID_1_);stroke-width:27.3438" />
      <path
         fill="#3e2723"
         fill-opacity="0.2"
         d="M 406.2,434.9 H 31.2 C 14,434.9 0,420.9 0,403.6 v 2.6 c 0,17.2 14,31.2 31.2,31.2 h 375 c 17.2,0 31.2,-14 31.2,-31.2 v -2.6 c 0.1,17.3 -13.9,31.3 -31.2,31.3 z"
         id="path1788"
         style="stroke-width:747.681" />
      <path
         fill="#ffffff"
         fill-opacity="0.2"
         d="M 406.2,0 H 31.2 C 14,0 0,14 0,31.2 v 2.6 C 0,16.6 14,2.6 31.2,2.6 h 375 c 17.2,0 31.2,14 31.2,31.3 V 31.3 C 437.5,14 423.5,0 406.2,0 Z"
         id="path1790"
         style="stroke-width:747.681" />
      <path
         fill="#f1f1f1"
         d="m 328.1,187.5 h -10.4 c -8.6,0 -15.6,-7 -15.6,-15.6 0,-43.1 -35,-78.1 -78.1,-78.1 h -52.1 c -43.1,0 -78.1,35 -78.1,78.1 v 93.8 c 0,43.1 35,78.1 78.1,78.1 h 93.8 c 43.1,0 78.1,-35 78.1,-78.1 v -62.5 c 0,-8.7 -7,-15.7 -15.7,-15.7 z M 171.9,156.2 h 62.5 c 8.6,0 15.6,7 15.6,15.6 0,8.6 -7,15.6 -15.6,15.6 h -62.5 c -8.6,0 -15.6,-7 -15.6,-15.6 0,-8.6 6.9,-15.6 15.6,-15.6 z m 93.7,125 h -93.8 c -8.6,0 -15.6,-7 -15.6,-15.6 0,-8.6 7,-15.6 15.6,-15.6 h 93.8 c 8.6,0 15.6,7 15.6,15.6 0,8.6 -6.9,15.6 -15.6,15.6 z"
         id="path1792"
         style="stroke-width:747.681" />
      <path
         fill="#3e2723"
         fill-opacity="0.1"
         d="m 171.9,252.6 h 93.8 c 8.2,0 14.8,6.3 15.5,14.3 0.1,-0.4 0.2,-0.8 0.2,-1.3 0,-8.6 -7,-15.6 -15.6,-15.6 H 172 c -8.6,0 -15.6,7 -15.6,15.6 0,0.5 0.1,0.9 0.2,1.3 0.4,-8 7.1,-14.3 15.3,-14.3 z m 0,-93.7 h 62.5 c 8.2,0 14.8,6.3 15.5,14.3 0.1,-0.4 0.2,-0.8 0.2,-1.3 0,-8.6 -7,-15.6 -15.6,-15.6 H 172 c -8.6,0 -15.6,7 -15.6,15.6 0,0.5 0.1,0.9 0.2,1.3 0.4,-8 7.1,-14.3 15.3,-14.3 z m 93.7,184.9 h -93.8 c -43.1,0 -78.1,-35 -78.1,-78.1 v 2.6 c 0,43.1 35,78.1 78.1,78.1 h 93.8 c 43.1,0 78.1,-35 78.1,-78.1 v -2.6 c 0.1,43.1 -34.9,78.1 -78.1,78.1 z"
         id="path1794"
         style="stroke-width:747.681" />
      <path
         fill="#ffffff"
         fill-opacity="0.4"
         d="m 265.6,281.2 h -93.8 c -8.2,0 -14.8,-6.3 -15.5,-14.3 -0.1,0.4 -0.2,0.8 -0.2,1.3 0,8.6 7,15.6 15.6,15.6 h 93.8 c 8.6,0 15.6,-7 15.6,-15.6 0,-0.5 -0.1,-0.9 -0.2,-1.3 -0.4,8 -7.1,14.3 -15.3,14.3 z m 62.5,-93.7 h -10.4 c -8.6,0 -15.6,-7 -15.6,-15.6 0,-43.1 -35,-78.1 -78.1,-78.1 h -52.1 c -43.1,0 -78.1,35 -78.1,78.1 v 2.6 c 0,-43.1 35,-78.1 78.1,-78.1 H 224 c 43.1,0 78.1,35 78.1,78.1 0,8.6 7,15.6 15.6,15.6 h 10.4 c 8.6,0 15.6,7 15.6,15.6 v -2.6 c 0.1,-8.6 -6.9,-15.6 -15.6,-15.6 z m -156.2,2.6 h 62.5 c 8.6,0 15.6,-7 15.6,-15.6 0,-0.5 -0.1,-0.9 -0.2,-1.3 -0.6,8 -7.3,14.3 -15.5,14.3 h -62.5 c -8.2,0 -14.8,-6.3 -15.5,-14.3 -0.1,0.4 -0.2,0.8 -0.2,1.3 0.1,8.6 7.1,15.6 15.8,15.6 z"
         id="path1796"
         style="stroke-width:747.681" />
      <radialGradient
         id="radialGradient1939"
         cx="763.48962"
         cy="103.2396"
         r="1186.0625"
         gradientTransform="matrix(0.5,0,0,-0.5,-370.125,59.625)"
         gradientUnits="userSpaceOnUse">
        <stop
           offset="0.32"
           style="stop-color:#FFFFFF"
           id="stop1935" />
        <stop
           offset="1"
           style="stop-color:#FFFFFF;stop-opacity:0"
           id="stop1937" />
      </radialGradient>
      <path
         fill="url(#SVGID_2_)"
         fill-opacity="0.1"
         d="m 437.5,406.2 c 0,17.2 -14,31.2 -31.2,31.2 H 31.3 C 14,437.5 0,423.5 0,406.2 V 31.2 C 0,14 14,0 31.2,0 h 375 c 17.2,0 31.2,14 31.2,31.2 v 375 z"
         id="path1803"
         style="fill:url(#SVGID_2_);stroke-width:747.681" />
    </g>
  </g>
</svg>
