# Blender 5.1.0
# www.blender.org
mtllib tile_1corner_1line.mtl
o Tile_1line.002
v -2.325294 0.108904 0.795828
v -2.624249 0.051709 2.500973
v -2.325350 0.103551 0.795785
v -2.623653 0.045000 2.506743
v -2.319637 0.086157 0.800201
v -2.614993 0.045000 2.506743
v -2.614396 0.051709 2.500973
v -2.624438 0.049036 2.504701
v -1.753677 0.051327 1.459243
v -3.485334 0.051327 1.459243
v -2.619323 0.049084 2.505905
v -2.619323 0.045000 2.507779
v -1.753677 0.067218 1.438533
v -2.614208 0.049036 2.504701
v -2.182315 0.086157 0.906347
v -3.485334 0.067218 1.438532
v -2.176609 0.103532 0.910758
v -1.753677 0.087929 1.422641
v -2.176680 0.108809 0.910703
v -2.179981 0.112012 0.908151
v -2.619323 0.052047 2.501079
v -3.475723 0.051709 2.009374
v -2.192820 0.116003 0.898227
v -2.197419 0.115257 0.894672
v -3.485334 0.087929 1.422640
v -2.200621 0.110997 0.892197
v -1.753677 0.087929 1.595846
v -3.480649 0.051709 2.000841
v -2.204042 0.100579 0.889553
v -3.485334 0.087929 1.595845
v -2.213008 0.085842 0.882623
v -3.485348 0.045000 2.004243
v -2.224692 0.074534 0.873591
v -3.481018 0.045000 2.011743
v -2.238298 0.067425 0.863074
v -1.753677 0.067218 1.579954
v -2.252899 0.065001 0.851788
v -3.485334 0.067218 1.579954
v -2.267500 0.067425 0.840501
v -3.478278 0.052047 2.005161
v -2.281106 0.074534 0.829984
v -1.753677 0.051327 1.559243
v -2.292790 0.085842 0.820953
v -3.482457 0.049084 2.007574
v -2.301756 0.100579 0.814023
v -2.305183 0.111016 0.811373
v -3.485334 0.051327 1.559243
v -3.483972 0.049036 2.002542
v -2.308362 0.115172 0.808916
v -3.484080 0.045000 2.008511
v -2.312913 0.115696 0.805399
v -2.322037 0.112319 0.798346
v -3.478857 0.049036 2.011401
v -3.485334 0.102351 1.568440
v -2.378144 0.108904 0.867523
v -3.480649 0.051709 1.017644
v -2.378193 0.103551 0.867472
v -3.485334 0.087614 1.557132
v -2.373142 0.086157 0.872639
v -3.475722 0.051709 1.009111
v -3.485334 0.069198 1.525234
v -3.481018 0.045000 1.006743
v -3.485334 0.066773 1.506817
v -3.485348 0.045000 1.014243
v -3.485334 0.076306 1.542396
v -3.478278 0.052047 1.013325
v -3.482457 0.049084 1.010912
v -2.251729 0.086157 0.996860
v -2.246684 0.103532 1.002022
v -3.485334 0.087614 1.456503
v -2.246746 0.108809 1.001958
v -3.485334 0.102351 1.445195
v -2.249666 0.112012 0.998971
v -3.478857 0.049036 1.007084
v -2.261017 0.116003 0.987357
v -3.484080 0.045000 1.009975
v -3.485334 0.076306 1.471239
v -2.265083 0.115257 0.983197
v -3.483972 0.049036 1.015944
v -2.267914 0.110997 0.980301
v -2.270939 0.100579 0.977206
v -3.485334 0.069198 1.488401
v -1.753677 0.066773 1.506818
v -2.278866 0.085842 0.969096
v -2.624249 0.051709 0.517513
v -2.289196 0.074534 0.958526
v -2.614396 0.051709 0.517513
v -2.301226 0.067425 0.946218
v -2.314136 0.065001 0.933010
v -1.753677 0.076306 1.471240
v -2.327045 0.067425 0.919802
v -1.753677 0.069198 1.488402
v -2.614992 0.045000 0.511743
v -2.339075 0.074534 0.907494
v -2.349406 0.085842 0.896925
v -1.753677 0.102351 1.445195
v -2.357332 0.100579 0.888815
v -2.623652 0.045000 0.511743
v -1.753677 0.087614 1.456503
v -2.360363 0.111016 0.885715
v -2.363173 0.115172 0.882839
v -2.619322 0.052047 0.517407
v -1.753677 0.087614 1.557133
v -2.367197 0.115696 0.878723
v -2.375264 0.112319 0.870469
v -2.619322 0.049084 0.512582
v -2.437361 0.108178 0.929742
v -1.753677 0.102351 1.568441
v -2.437401 0.102825 0.929684
v -2.614207 0.049036 0.513785
v -2.619322 0.045000 0.510708
v -2.433264 0.085431 0.935617
v -1.753677 0.076306 1.542396
v -2.624437 0.049036 0.513785
v -1.753677 0.069198 1.525235
v -1.762922 0.051709 1.009112
v -1.753983 0.114091 1.419615
v -1.753677 0.105323 1.415436
v -1.757996 0.051709 1.017645
v -1.753841 0.110676 1.415506
v -2.333804 0.085431 1.078246
v -1.753297 0.045000 1.014243
v -2.329671 0.102806 1.084172
v -3.485018 0.114091 1.419614
v -2.329722 0.108083 1.084099
v -1.757627 0.045000 1.006743
v -2.332114 0.111286 1.080669
v -3.485334 0.105323 1.415436
v -2.341413 0.115278 1.067335
v -1.760367 0.052047 1.013325
v -2.344743 0.114531 1.062558
v -2.347063 0.110271 1.059232
v -3.484969 0.110676 1.415506
v -2.349541 0.099853 1.055678
v -1.756188 0.049084 1.010913
v -1.754433 0.113784 1.598789
v -2.356034 0.085116 1.046367
v -2.364497 0.073808 1.034231
v -1.754673 0.049036 1.015944
v -2.291132 0.073620 0.820131
v -2.374352 0.066700 1.020099
v -1.754565 0.045000 1.009976
v -2.384927 0.064275 1.004934
v -1.753677 0.105304 1.603043
v -2.395502 0.066700 0.989769
v -2.405357 0.073808 0.975637
v -2.279449 0.062312 0.829163
v -1.753690 0.110581 1.602954
v -2.413819 0.085116 0.963501
v -2.420313 0.099853 0.954189
v -2.265843 0.055203 0.839681
v -2.422795 0.110290 0.950629
v -1.759788 0.049036 1.007085
v -2.251243 0.052779 0.850968
v -2.425097 0.114446 0.947328
v -2.428393 0.114971 0.942602
v -3.485018 0.113784 1.598789
v -2.435002 0.111593 0.933125
v -2.236642 0.055203 0.862255
v -2.495382 0.108904 0.965868
v -2.223037 0.062312 0.872773
v -1.757996 0.051709 2.000842
v -2.495410 0.103551 0.965804
v -2.492460 0.086157 0.972418
v -3.485334 0.105304 1.603042
v -2.211354 0.073620 0.881805
v -1.762923 0.051709 2.009375
v -3.484969 0.110581 1.602954
v -1.757627 0.045000 2.011744
v -1.753297 0.045000 2.004243
v -3.485018 0.117469 1.431122
v -3.485334 0.112788 1.440871
v -2.421538 0.086157 1.131410
v -1.760367 0.052047 2.005162
v -3.484969 0.116945 1.436862
v -2.418591 0.103532 1.138016
v -2.418628 0.108809 1.137934
v -1.756188 0.049084 2.007574
v -3.485018 0.117776 1.582596
v -2.420333 0.112012 1.134111
v -2.426964 0.116003 1.119247
v -1.759789 0.049036 2.011402
v -3.485334 0.112769 1.572756
v -2.429339 0.115257 1.113922
v -2.430993 0.110997 1.110215
v -1.754565 0.045000 2.008511
v -1.754674 0.049036 2.002543
v -2.432760 0.100579 1.106253
v -3.484969 0.117029 1.576795
v -2.437390 0.085842 1.095873
v -3.481018 0.000000 2.011743
v -2.443424 0.074534 1.082346
v -2.450452 0.067425 1.066592
v -1.753983 0.117469 1.431123
v -3.485348 0.000000 2.004243
v -2.457993 0.065001 1.049687
v -2.352458 0.073620 0.899592
v -2.465533 0.067425 1.032782
v -2.342137 0.062312 0.910171
v -2.472561 0.074534 1.017029
v -1.753677 0.112788 1.440872
v -2.478595 0.085842 1.003501
v -2.330119 0.055203 0.922490
v -2.483225 0.100579 0.993121
v -3.484080 0.000000 2.008511
v -2.484995 0.111016 0.989153
v -1.753841 0.116945 1.436863
v -2.486637 0.115172 0.985473
v -2.317222 0.052779 0.935710
v -2.488987 0.115696 0.980204
v -2.614993 0.000000 2.506743
v -2.493700 0.112319 0.969640
v -2.556357 0.108904 0.985977
v -2.304325 0.055203 0.948930
v -2.556371 0.103551 0.985908
v -1.754433 0.117776 1.582596
v -2.292307 0.062312 0.961249
v -2.554876 0.086157 0.993001
v -1.753677 0.112769 1.572756
v -2.281987 0.073620 0.971828
v -2.623653 0.000000 2.506743
v -1.753690 0.117029 1.576795
v -2.619323 0.000000 2.507779
v -1.753297 0.000000 2.004243
v -1.757627 0.000000 2.011744
v -1.754565 0.000000 2.008511
v -2.518931 0.086157 1.163528
v -2.517438 0.103532 1.170614
v -1.757627 -0.000003 1.006743
v -2.517456 0.108809 1.170526
v -1.753297 0.000000 1.014243
v -1.754565 -0.000001 1.009976
v -2.518321 0.112012 1.166426
v -2.521681 0.116003 1.150483
v -2.623652 -0.000565 0.511743
v -2.614992 -0.000565 0.511743
v -2.522885 0.115257 1.144772
v -2.619322 -0.000566 0.510708
v -2.523723 0.110997 1.140795
v -2.524619 0.100579 1.136547
v -3.485348 0.000000 1.014243
v -2.526965 0.085842 1.125414
v -3.481018 -0.000003 1.006743
v -3.484080 -0.000001 1.009975
v -2.530024 0.074534 1.110905
v -2.533585 0.067425 1.094008
v -3.429015 0.070867 1.982145
v -3.433714 0.070867 1.974006
v -2.537407 0.065001 1.075877
v -3.442064 0.065742 1.978564
v -2.541229 0.067425 1.057745
v -2.544790 0.074534 1.040849
v -2.410123 0.073620 0.963546
v -2.547849 0.085842 1.026340
v -2.401651 0.062312 0.975674
v -3.437137 0.065742 1.987097
v -2.550195 0.100579 1.015207
v -2.551093 0.111016 1.010950
v -2.391784 0.055203 0.989796
v -2.551925 0.115172 1.007003
v -3.431750 0.071417 1.978298
v -3.436093 0.068059 1.980806
v -2.553116 0.115696 1.001352
v -2.555504 0.112319 0.990022
v -2.381196 0.052779 1.004952
v -3.437672 0.067951 1.976285
v -2.616109 0.108904 0.991787
v -2.370607 0.055203 1.020107
v -2.616107 0.103551 0.991717
v -2.616234 0.086157 0.998968
v -2.360741 0.062312 1.034230
v -3.439693 0.066080 1.982884
v -3.432967 0.067951 1.984433
v -2.352268 0.073620 1.046357
v -2.624022 0.070867 2.446908
v -2.624249 0.065742 2.456419
v -2.614396 0.065742 2.456419
v -2.614624 0.070867 2.446908
v -2.624027 0.067951 2.451475
v -2.619267 0.086157 1.173285
v -2.619323 0.068059 2.452369
v -2.619394 0.103532 1.180528
v -2.619323 0.066080 2.456525
v -2.619392 0.108809 1.180439
v -2.619319 0.112012 1.176247
v -2.614619 0.067951 2.451475
v -2.619035 0.116003 1.159950
v -2.619323 0.071417 2.447353
v -2.618934 0.115257 1.154112
v -3.433713 0.070867 1.044480
v -2.618863 0.110997 1.150047
v -3.429014 0.070867 1.036341
v -3.437137 0.065742 1.031389
v -2.618788 0.100579 1.145704
v -3.442063 0.065742 1.039922
v -2.618589 0.085842 1.134323
v -2.618331 0.074534 1.119492
v -3.431750 0.071417 1.040188
v -2.618031 0.067425 1.102220
v -3.436093 0.068059 1.037680
v -2.617708 0.065001 1.083686
v -3.432967 0.067951 1.034053
v -2.617385 0.067425 1.065151
v -3.439692 0.066080 1.035602
v -2.479819 0.073620 1.003632
v -2.617085 0.074534 1.047879
v -3.437671 0.067951 1.042201
v -2.616827 0.085842 1.033048
v -2.616629 0.100579 1.021667
v -2.624022 0.070867 0.571578
v -2.616553 0.111016 1.017316
v -2.473759 0.062312 1.017147
v -2.616483 0.115172 1.013281
v -2.614623 0.070867 0.571578
v -2.466701 0.055203 1.032885
v -2.616382 0.115696 1.007504
v -2.459127 0.052779 1.049775
v -2.616180 0.112319 0.995922
v -2.675728 0.108904 0.983887
v -2.614396 0.065742 0.562068
v -2.451553 0.055203 1.066664
v -2.675711 0.103551 0.983819
v -2.677448 0.086157 0.990856
v -2.624249 0.065742 0.562068
v -2.619322 0.071417 0.571133
v -2.444495 0.062312 1.082402
v -2.438435 0.073620 1.095917
v -2.619322 0.068059 0.566118
v -2.614618 0.067951 0.567011
v -2.619322 0.066080 0.561962
v -2.624027 0.067951 0.567011
v -1.809630 0.070867 1.036341
v -2.719201 0.086157 1.160043
v -2.720936 0.103532 1.167073
v -1.804931 0.070867 1.044481
v -1.796581 0.065742 1.039922
v -2.720915 0.108809 1.166986
v -1.801508 0.065742 1.031389
v -2.719911 0.112012 1.162918
v -2.716007 0.116003 1.147100
v -1.806895 0.071417 1.040188
v -1.802552 0.068059 1.037681
v -2.714609 0.115257 1.141434
v -1.800973 0.067951 1.042201
v -2.713635 0.110997 1.137489
v -2.712595 0.100579 1.133273
v -1.798952 0.066080 1.035603
v -1.805678 0.067951 1.034053
v -2.709869 0.085842 1.122228
v -2.706316 0.074534 1.107833
v -1.804932 0.070867 1.974006
v -2.702179 0.067425 1.091070
v -1.809631 0.070867 1.982145
v -2.697740 0.065001 1.073080
v -1.801508 0.065742 1.987098
v -2.693300 0.067425 1.055091
v -1.796582 0.065742 1.978565
v -2.689163 0.074534 1.038328
v -1.806895 0.071417 1.978298
v -2.549666 0.073620 1.026869
v -2.685611 0.085842 1.023933
v -1.802552 0.068059 1.980806
v -2.682885 0.100579 1.012887
v -1.805678 0.067951 1.984433
v -2.681843 0.111016 1.008664
v -2.546561 0.062312 1.041367
v -2.680876 0.115172 1.004748
v -1.798953 0.066080 1.982884
v -2.679492 0.115696 0.999141
v -2.542944 0.055203 1.058250
v -2.676718 0.112319 0.987900
v -2.736250 0.108904 0.961646
v -1.800974 0.067951 1.976285
v -2.539063 0.052779 1.076368
v -2.736219 0.103551 0.961583
v -2.739383 0.086157 0.968096
v -3.420675 0.078670 1.977330
v -2.535182 0.055203 1.094486
v -2.531566 0.062312 1.111369
v -3.416723 0.082086 1.969622
v -2.528460 0.073620 1.125867
v -3.425375 0.078670 1.969191
v -3.418839 0.081085 1.973718
v -3.421281 0.080756 1.972254
v -3.421328 0.081085 1.969406
v -2.815454 0.086157 1.124671
v -3.423410 0.079220 1.973483
v -2.818615 0.103532 1.131177
v -2.624022 0.078670 2.437278
v -2.818576 0.108809 1.131097
v -2.816747 0.112012 1.127332
v -2.614624 0.078670 2.437278
v -2.809635 0.116003 1.112693
v -2.619323 0.082086 2.430002
v -2.619323 0.079220 2.437724
v -2.807087 0.115257 1.107449
v -2.805314 0.110997 1.103798
v -2.619323 0.080756 2.435265
v -2.803418 0.100579 1.099897
v -2.616833 0.081085 2.433882
v -2.798452 0.085842 1.089675
v -2.621812 0.081085 2.433882
v -3.425374 0.078670 1.049295
v -2.791979 0.074534 1.076353
v -3.416723 0.082086 1.048863
v -2.784442 0.067425 1.060839
v -3.420675 0.078670 1.041156
v -2.776354 0.065001 1.044191
v -3.421328 0.081085 1.049079
v -2.768265 0.067425 1.027543
v -3.421280 0.080756 1.046232
v -2.760728 0.074534 1.012029
v -2.754255 0.085842 0.998707
v -3.418839 0.081085 1.044768
v -2.619275 0.073620 1.033915
v -2.749289 0.100579 0.988485
v -3.423410 0.079220 1.045003
v -2.747390 0.111016 0.984576
v -2.624022 0.078670 0.581208
v -2.745629 0.115172 0.980952
v -2.619468 0.062312 1.048747
v -2.743109 0.115696 0.975763
v -2.619322 0.082086 0.588484
v -2.738054 0.112319 0.965360
v -2.619693 0.055203 1.066018
v -2.797806 0.108904 0.923707
v -2.614623 0.078670 0.581208
v -2.797763 0.103551 0.923650
v -2.802081 0.086157 0.929452
v -2.619934 0.052779 1.084554
v -2.621812 0.081085 0.584604
v -2.620176 0.055203 1.103089
v -2.619322 0.080756 0.583222
v -2.620401 0.062312 1.120361
v -2.616833 0.081085 0.584604
v -2.620594 0.073620 1.135192
v -2.619322 0.079220 0.580763
v -2.905870 0.086157 1.068943
v -1.817970 0.078670 1.041156
v -1.821922 0.082086 1.048864
v -2.910183 0.103532 1.074739
v -2.910130 0.108809 1.074668
v -1.813271 0.078670 1.049295
v -2.907634 0.112012 1.071314
v -1.819806 0.081085 1.044768
v -1.817364 0.080756 1.046233
v -2.897931 0.116003 1.058273
v -2.894455 0.115257 1.053601
v -1.817317 0.081085 1.049080
v -2.892035 0.110997 1.050348
v -1.815235 0.079220 1.045003
v -2.889449 0.100579 1.046873
v -1.813271 0.078670 1.969191
v -1.821922 0.082086 1.969623
v -2.882673 0.085842 1.037766
v -1.817970 0.078670 1.977331
v -2.873842 0.074534 1.025897
v -1.817317 0.081085 1.969407
v -2.863558 0.067425 1.012076
v -2.852522 0.065001 0.997245
v -1.817365 0.080756 1.972254
v -2.841486 0.067425 0.982413
v -1.819807 0.081085 1.973719
v -2.831203 0.074534 0.968592
v -1.815235 0.079220 1.973484
v -3.485334 0.045040 1.474421
v -2.822372 0.085842 0.956723
v -3.485305 0.045127 1.500772
v -2.815596 0.100579 0.947617
v -2.813005 0.111016 0.944135
v -2.688655 0.073620 1.025061
v -2.810603 0.115172 0.940906
v -3.485334 0.045040 1.502202
v -2.807163 0.115696 0.936283
v -2.692137 0.062312 1.039473
v -2.800267 0.112319 0.927015
v -3.485334 0.045040 1.544065
v -2.859550 0.108904 0.868780
v -2.696193 0.055203 1.056257
v -2.859499 0.103551 0.868731
v -3.483972 0.049036 1.464773
v -2.864691 0.086157 0.873756
v -2.700544 0.052779 1.074267
v -3.483972 0.049036 1.553713
v -3.480649 0.051709 1.559741
v -2.704896 0.055203 1.092278
v -3.481124 0.051327 1.459243
v -2.708951 0.062312 1.109061
v -3.480649 0.051709 1.458745
v -2.712433 0.073620 1.123473
v -2.989503 0.086157 0.994546
v -3.481124 0.051327 1.559243
v -1.753677 0.046114 1.471828
v -2.994689 0.103532 0.999565
v -2.994625 0.108809 0.999503
v -1.753677 0.046114 1.546658
v -1.754673 0.049036 1.464773
v -2.991624 0.112012 0.996599
v -2.979955 0.116003 0.985306
v -1.754673 0.049036 1.553714
v -1.757521 0.051327 1.559243
v -2.975775 0.115257 0.981260
v -2.972865 0.110997 0.978444
v -1.757521 0.051327 1.459243
v -2.969755 0.100579 0.975434
v -1.757996 0.051709 1.458745
v -1.757996 0.051709 1.559742
v -2.961606 0.085842 0.967548
v -3.442064 0.065742 1.578030
v -2.950987 0.074534 0.957271
v -3.439129 0.067218 1.579954
v -2.938620 0.067425 0.945303
v -3.437672 0.067951 1.580516
v -2.925349 0.065001 0.932459
v -2.912078 0.067425 0.919616
v -3.437672 0.067951 1.437970
v -3.442064 0.065742 1.440456
v -2.899712 0.074534 0.907648
v -3.439129 0.067218 1.438532
v -2.889092 0.085842 0.897371
v -3.433714 0.070867 1.435732
v -2.880944 0.100579 0.889485
v -2.877828 0.111016 0.886470
v -3.433714 0.070867 1.582754
v -2.874939 0.115172 0.883674
v -1.800973 0.067951 1.580516
v -2.870803 0.115696 0.879671
v -2.757811 0.073620 1.000035
v -2.764222 0.062312 1.013387
v -2.862510 0.112319 0.871645
v -1.799516 0.067218 1.579954
v -2.920106 0.108904 0.796045
v -2.920049 0.103551 0.796004
v -2.771688 0.055203 1.028936
v -2.925880 0.086157 0.800260
v -1.796582 0.065742 1.578030
v -2.779700 0.052779 1.045622
v -1.796582 0.065742 1.440456
v -2.787711 0.055203 1.062308
v -1.800973 0.067951 1.437970
v -2.795177 0.062312 1.077857
v -1.799516 0.067218 1.438533
v -2.801588 0.073620 1.091209
v -3.066064 0.086157 0.902587
v -1.804931 0.070867 1.582754
v -1.804931 0.070867 1.435733
v -3.071888 0.103532 0.906839
v -3.425374 0.078670 1.588741
v -3.071817 0.108809 0.906787
v -3.068446 0.112012 0.904326
v -3.421328 0.081085 1.590594
v -3.055340 0.116003 0.894759
v -3.421328 0.081085 1.427892
v -3.050645 0.115257 0.891332
v -3.425374 0.078670 1.429745
v -3.416723 0.082086 1.591362
v -3.047376 0.110997 0.888946
v -3.416723 0.082086 1.427124
v -3.043884 0.100579 0.886397
v -3.034731 0.085842 0.879716
v -1.817317 0.081085 1.590595
v -1.813271 0.078670 1.588741
v -3.022804 0.074534 0.871010
v -3.008914 0.067425 0.860871
v -1.813271 0.078670 1.429746
v -2.994009 0.065001 0.849991
v -1.817317 0.081085 1.427892
v -2.979104 0.067425 0.839111
v -1.821922 0.082086 1.591362
v -2.965214 0.074534 0.828972
v -1.821922 0.082086 1.427124
v -2.826336 0.073620 0.958206
v -2.953287 0.085842 0.820265
v -2.944135 0.100579 0.813585
v -2.835123 0.062312 0.970108
v -2.940636 0.111016 0.811031
v -2.845355 0.055203 0.983969
v -2.937391 0.115172 0.808662
v -2.856335 0.052779 0.998843
v -2.932745 0.115696 0.805271
v -2.867316 0.055203 1.013716
v -2.923431 0.112319 0.798472
v -2.877548 0.062312 1.027577
v -2.270996 0.108904 0.708942
v -2.886335 0.073620 1.039479
v -2.893362 0.073620 0.898965
v -2.267435 0.112319 0.710998
v -2.271057 0.103551 0.708907
v -2.903956 0.062312 0.909270
v -2.916292 0.055203 0.921270
v -2.264811 0.086157 0.712513
v -2.929531 0.052779 0.934148
v -2.251036 0.065446 0.720466
v -2.942770 0.055203 0.947026
v -2.233083 0.049554 0.730831
v -2.955107 0.062312 0.959026
v -2.212177 0.039564 0.742901
v -2.965700 0.073620 0.969331
v -2.189743 0.036157 0.755854
v -2.957761 0.073620 0.821912
v -2.167308 0.039564 0.768806
v -2.969678 0.062312 0.830634
v -2.146403 0.049554 0.780876
v -2.983556 0.055203 0.840790
v -2.128452 0.065446 0.791240
v -2.998448 0.052779 0.851690
v -2.114677 0.086157 0.799193
v -2.108439 0.103532 0.802794
v -3.013340 0.055203 0.862589
v -3.027218 0.062312 0.872746
v -2.108516 0.108809 0.802750
v -2.112126 0.112012 0.800666
v -3.039135 0.073620 0.881467
v -2.998035 0.065742 0.777873
v -2.126162 0.116003 0.792562
v -3.067408 0.065742 0.817926
v -2.131190 0.115257 0.789659
v -2.993179 0.067951 0.780141
v -2.134691 0.110997 0.787638
v -3.067542 0.067951 0.823075
v -2.138431 0.100579 0.785478
v -2.987754 0.070867 0.781579
v -2.148232 0.085842 0.779820
v -3.068705 0.070867 0.828316
v -2.161006 0.074534 0.772445
v -2.178607 0.065742 0.813671
v -2.175882 0.067425 0.763856
v -2.191845 0.065001 0.754640
v -2.248038 0.065742 0.773585
v -2.178539 0.067951 0.818781
v -2.207808 0.067425 0.745423
v -2.252962 0.067951 0.775814
v -2.222684 0.074534 0.736835
v -2.177431 0.070867 0.823991
v -2.235458 0.085842 0.729460
v -2.258443 0.070867 0.777219
v -2.245260 0.100579 0.723800
v -2.976800 0.078670 0.784885
v -2.249008 0.111016 0.721637
v -3.070687 0.078670 0.839090
v -2.252483 0.115172 0.719630
v -2.973014 0.081085 0.787371
v -2.257459 0.115696 0.716758
v -3.070120 0.081085 0.843435
v -2.976171 0.108904 0.708191
v -2.969868 0.082086 0.790872
v -2.979726 0.112319 0.710244
v -2.976110 0.103551 0.708156
v -3.068311 0.082086 0.847708
v -2.982345 0.086157 0.711756
v -2.175570 0.078670 0.834695
v -2.996100 0.065446 0.719697
v -2.269522 0.078670 0.780452
v -3.014025 0.049554 0.730047
v -2.273366 0.081085 0.782905
v -2.176199 0.081085 0.839004
v -3.034899 0.039564 0.742098
v -2.276577 0.082086 0.786368
v -3.057300 0.036157 0.755031
v -2.178077 0.082086 0.843237
v -3.079701 0.039564 0.767965
v -3.100576 0.049554 0.780017
v -3.051889 0.052779 0.767808
v -3.032360 0.055203 0.764230
v -3.118501 0.065446 0.790366
v -3.132256 0.086157 0.798307
v -3.064248 0.055203 0.782641
v -3.138485 0.103532 0.801904
v -3.006981 0.062312 0.772147
v -3.138408 0.108809 0.801859
v -3.068602 0.062312 0.807723
v -3.134804 0.112012 0.799778
v -2.193623 0.052779 0.763843
v -3.120788 0.116003 0.791686
v -2.181345 0.055203 0.778629
v -3.115767 0.115257 0.788787
v -2.213269 0.055203 0.760198
v -3.112271 0.110997 0.786769
v -2.177270 0.062312 0.803551
v -3.108536 0.100579 0.784613
v -2.238947 0.062312 0.767942
v -3.098749 0.085842 0.778962
v -2.983060 0.073620 0.782266
v -3.085994 0.074534 0.771598
v -3.070228 0.073620 0.832593
v -2.175946 0.073620 0.828245
v -3.071141 0.067425 0.763022
v -3.055201 0.065001 0.753820
v -2.263178 0.073620 0.777882
v -3.039261 0.067425 0.744617
v -2.206203 0.082086 0.885787
v -3.024408 0.074534 0.736041
v -2.296282 0.082086 0.816149
v -2.277438 0.082086 0.976491
v -3.011653 0.085842 0.728677
v -2.413858 0.082086 0.958200
v -3.001866 0.100579 0.723027
v -2.551035 0.082086 1.020478
v -2.998124 0.111016 0.720866
v -2.482491 0.082086 0.997675
v -2.994654 0.115172 0.718863
v -2.989686 0.115696 0.715995
v -2.619190 0.082086 1.027377
v -2.357007 0.082086 0.894929
v -2.687120 0.082086 1.018708
v -2.822463 0.082086 0.952960
v -2.888692 0.082086 0.894422
v -2.754985 0.082086 0.994149
v -3.044388 0.082086 0.885312
v -2.970370 0.082086 0.973873
v -2.952508 0.082086 0.818067
v -2.890208 0.082086 1.044725
v -2.348533 0.082086 1.051703
v -2.527091 0.082086 1.132258
v -2.435763 0.082086 1.101874
v -2.713968 0.082086 1.129826
v -2.804414 0.082086 1.097095
v -2.620679 0.082086 1.141730
v -3.020244 0.045000 0.740715
v -3.087768 0.045000 0.779700
v -3.011070 0.049036 0.737008
v -3.095463 0.049036 0.785732
v -3.009641 0.049554 0.736926
v -3.096201 0.049554 0.786902
v -3.005767 0.051709 0.737783
v -3.097194 0.051709 0.790568
v -2.156583 0.045000 0.776406
v -2.224200 0.045000 0.737367
v -2.148871 0.049036 0.782448
v -2.233378 0.049036 0.733658
v -2.148132 0.049554 0.783618
v -2.234805 0.049554 0.733578
v -2.147127 0.051709 0.787291
v -2.238659 0.051709 0.734445
v -3.092185 0.065742 0.832231
v -3.091296 0.067951 0.836789
v -2.969310 0.065742 0.761289
v -2.965477 0.067951 0.764147
v -2.961407 0.070867 0.766368
v -3.091109 0.070867 0.841251
v -2.274858 0.065742 0.758100
v -2.278655 0.067951 0.760980
v -2.152015 0.065742 0.829023
v -2.152891 0.067951 0.833589
v -2.282690 0.070867 0.763220
v -2.153065 0.070867 0.838059
v -2.951729 0.078670 0.770410
v -2.947946 0.081085 0.772898
v -3.091820 0.078670 0.851291
v -3.091256 0.081085 0.855638
v -2.944802 0.082086 0.776400
v -3.089452 0.082086 0.859913
v -2.292293 0.078670 0.767306
v -2.296046 0.081085 0.769811
v -2.152333 0.078670 0.848112
v -2.152892 0.081085 0.852461
v -2.299154 0.082086 0.773334
v -2.154688 0.082086 0.856741
v -3.031604 0.039564 0.747274
v -3.054007 0.036157 0.760208
v -3.076409 0.039564 0.773142
v -2.969945 0.065446 0.760715
v -3.092426 0.065446 0.831429
v -2.167958 0.039564 0.769838
v -2.190392 0.036157 0.756886
v -2.212826 0.039564 0.743934
v -2.151778 0.065446 0.828220
v -2.274230 0.065446 0.757522
v -2.554228 0.082086 0.996077
v -2.317161 0.082086 0.802115
v -2.370953 0.082086 0.874880
v -2.928409 0.082086 0.802105
v -2.866942 0.082086 0.875934
v -2.491181 0.082086 0.975285
v -2.616288 0.082086 1.002111
v -2.678200 0.082086 0.993907
v -2.740755 0.082086 0.970919
v -2.431790 0.082086 0.937730
v -2.803952 0.082086 0.931968
v -2.184792 0.082086 0.904433
v -3.063536 0.082086 0.900742
v -2.987252 0.082086 0.992368
v -2.253919 0.082086 0.994620
v -2.903999 0.082086 1.066428
v -2.335278 0.082086 1.076132
v -2.422817 0.082086 1.128542
v -2.619213 0.082086 1.170141
v -2.718448 0.082086 1.156991
v -2.814082 0.082086 1.121847
v -2.519580 0.082086 1.160453
vn -0.1032 0.8317 0.5456
vn -0.2126 0.4077 0.8880
vn 0.2126 0.4077 0.8880
vn 0.1032 0.8317 0.5456
vn -0.4209 0.8316 0.3622
vn -0.5241 0.8317 0.1835
vn -0.8754 0.4077 0.2598
vn -0.6627 0.4077 0.6282
vn -0.5241 0.8317 -0.1835
vn -0.4209 0.8316 -0.3622
vn -0.6627 0.4077 -0.6282
vn -0.8754 0.4077 -0.2599
vn -0.1032 0.8317 -0.5456
vn 0.1032 0.8317 -0.5456
vn 0.2126 0.4077 -0.8880
vn -0.2126 0.4077 -0.8880
vn 0.4209 0.8316 -0.3622
vn 0.5241 0.8317 -0.1835
vn 0.8754 0.4077 -0.2598
vn 0.6627 0.4077 -0.6282
vn 0.5241 0.8317 0.1835
vn 0.4209 0.8316 0.3622
vn 0.6627 0.4077 0.6282
vn 0.8754 0.4077 0.2599
vn -0.4024 0.8290 0.3884
vn -0.5376 0.8290 0.1543
vn -0.4018 0.9059 0.1339
vn -0.3168 0.9059 0.2810
vn -0.1352 0.8290 0.5427
vn -0.0850 0.9059 0.4149
vn 0.0850 0.9059 0.4149
vn 0.1352 0.8290 0.5427
vn -0.5376 0.8290 -0.1543
vn -0.4024 0.8290 -0.3884
vn -0.3168 0.9059 -0.2810
vn -0.4018 0.9059 -0.1339
vn -0.1352 0.8290 -0.5427
vn 0.1352 0.8290 -0.5427
vn 0.0850 0.9059 -0.4149
vn -0.0850 0.9059 -0.4149
vn 0.4024 0.8290 -0.3884
vn 0.5376 0.8290 -0.1543
vn 0.4018 0.9059 -0.1339
vn 0.3168 0.9059 -0.2810
vn 0.5376 0.8290 0.1543
vn 0.4024 0.8290 0.3884
vn 0.3168 0.9059 0.2810
vn 0.4018 0.9059 0.1339
vn -0.3650 0.8450 0.3908
vn -0.2121 0.9695 0.1225
vn -0.5210 0.8450 0.1206
vn -0.1560 0.8450 0.5115
vn 0.1560 0.8450 0.5115
vn -0.0000 0.9695 0.2449
vn -0.5210 0.8450 -0.1206
vn -0.2121 0.9695 -0.1225
vn -0.3650 0.8450 -0.3908
vn -0.1560 0.8450 -0.5115
vn -0.0000 0.9695 -0.2449
vn 0.1560 0.8450 -0.5115
vn 0.3650 0.8450 -0.3908
vn 0.2121 0.9695 -0.1225
vn 0.5210 0.8450 -0.1206
vn 0.5210 0.8450 0.1206
vn 0.2121 0.9695 0.1225
vn 0.3650 0.8450 0.3908
vn -0.4732 0.3227 0.8197
vn -0.3134 0.7792 0.5428
vn 0.2326 -0.0000 0.9726
vn -0.2326 -0.0000 0.9726
vn -0.9465 0.3227 -0.0000
vn -0.6268 0.7792 -0.0000
vn -0.4732 0.3227 -0.8197
vn -0.3134 0.7792 -0.5428
vn 0.4732 0.3227 -0.8197
vn 0.3134 0.7792 -0.5428
vn 0.9465 0.3227 -0.0000
vn 0.6268 0.7792 -0.0000
vn 0.4732 0.3227 0.8197
vn 0.3134 0.7792 0.5428
vn -0.9586 -0.0000 0.2849
vn -0.7260 -0.0000 0.6877
vn 0.7260 -0.0000 0.6877
vn 0.9586 -0.0000 0.2849
vn 0.9586 -0.0000 -0.2849
vn 0.7260 -0.0000 -0.6877
vn 0.2326 -0.0000 -0.9726
vn -0.2326 -0.0000 -0.9726
vn -0.7260 -0.0000 -0.6877
vn -0.9586 -0.0000 -0.2849
vn -0.2247 0.8934 0.3891
vn -0.2966 0.8051 0.5137
vn -0.4493 0.8934 -0.0000
vn -0.5932 0.8051 -0.0000
vn -0.2247 0.8934 -0.3891
vn -0.2966 0.8051 -0.5137
vn 0.2247 0.8934 -0.3891
vn 0.2966 0.8051 -0.5137
vn 0.4493 0.8934 -0.0000
vn 0.5932 0.8051 -0.0000
vn 0.2247 0.8934 0.3891
vn 0.2966 0.8051 0.5137
vn 0.2953 0.9514 0.0878
vn 0.2237 0.9514 0.2119
vn -0.0717 0.9514 0.2996
vn 0.0717 0.9514 0.2996
vn -0.0717 0.9514 -0.2997
vn 0.0717 0.9514 -0.2996
vn 0.2953 0.9514 -0.0878
vn 0.2237 0.9514 -0.2119
vn -0.2237 0.9514 0.2119
vn -0.2953 0.9514 0.0878
vn -0.2237 0.9514 -0.2119
vn -0.2953 0.9514 -0.0878
vn -0.2563 0.8586 0.4439
vn -0.1062 0.9772 0.1839
vn -0.5126 0.8586 -0.0000
vn -0.2123 0.9772 -0.0000
vn -0.2563 0.8586 -0.4439
vn -0.1062 0.9772 -0.1839
vn 0.2563 0.8586 -0.4439
vn 0.1062 0.9772 -0.1839
vn 0.5126 0.8586 -0.0000
vn 0.2123 0.9772 -0.0000
vn 0.2563 0.8586 0.4439
vn 0.1062 0.9772 0.1839
vn 0.4647 0.7683 -0.4402
vn 0.6136 0.7683 -0.1823
vn 0.4647 0.7683 0.4402
vn 0.6136 0.7683 0.1823
vn -0.6136 0.7683 -0.1823
vn -0.4647 0.7683 -0.4402
vn 0.1489 0.7683 -0.6225
vn -0.1489 0.7683 -0.6225
vn 0.1489 0.7683 0.6225
vn -0.1489 0.7683 0.6225
vn -0.6136 0.7683 0.1823
vn -0.4647 0.7683 0.4402
vn -0.1709 0.9398 0.2960
vn -0.5000 -0.0000 0.8660
vn 0.5000 -0.0000 0.8660
vn 0.1709 0.9398 0.2960
vn -1.0000 -0.0000 -0.0000
vn -0.3418 0.9398 -0.0000
vn -0.5000 -0.0000 -0.8660
vn -0.1709 0.9398 -0.2960
vn 0.5000 -0.0000 -0.8660
vn 0.1709 0.9398 -0.2960
vn 1.0000 -0.0000 -0.0000
vn 0.3418 0.9398 -0.0000
vn -0.3416 0.7302 0.5917
vn -0.6832 0.7302 -0.0000
vn 0.3416 0.7302 0.5917
vn -0.3416 0.7302 -0.5917
vn 0.3416 0.7302 -0.5917
vn 0.6832 0.7302 -0.0000
vn -0.0000 1.0000 -0.0000
vn -0.0000 -0.9239 -0.3827
vn -0.0000 -0.7934 -0.6088
vn -0.0000 -0.6088 -0.7934
vn -0.0000 -0.6088 0.7934
vn -0.0000 -0.7934 0.6088
vn -0.0000 -0.9239 0.3827
vn -0.0000 0.9914 0.1305
vn -0.0000 0.9239 0.3827
vn -0.0000 0.7934 0.6088
vn -0.0000 0.6088 0.7934
vn -0.0000 0.6088 -0.7934
vn -0.0000 0.7934 -0.6088
vn -0.0000 0.9239 -0.3827
vn -0.0000 0.9914 -0.1305
vn -0.0000 0.0131 -0.9999
vn -0.0000 0.7690 -0.6392
vn -0.0000 0.7927 0.6097
vn -0.0000 0.0168 0.9999
vn -0.0000 0.6943 0.7197
vn -0.0000 0.9959 0.0910
vn -0.0000 0.9918 -0.1277
vn -0.0000 0.6881 -0.7256
vn -1.0000 0.0028 -0.0000
vn 0.9995 0.0307 -0.0090
vn 0.9978 0.0642 -0.0188
vn 0.9434 0.3220 0.0794
vn 1.0000 0.0026 0.0006
vn -0.0000 -0.3827 -0.9239
vn -0.0000 0.9595 -0.2816
vn -0.0000 -0.3827 0.9239
vn -0.0000 0.9709 0.2393
vn -0.0000 0.3827 0.9239
vn -0.0000 0.3827 -0.9239
vn 0.6618 0.6085 0.4379
vn 0.6458 0.6084 0.4613
vn 0.5741 0.7083 0.4107
vn 0.5547 0.7467 0.3670
vn 0.5079 0.7931 0.3361
vn 0.4049 0.8672 0.2900
vn 0.3549 0.9049 0.2348
vn 0.2081 0.9667 0.1493
vn 0.1672 0.9797 0.1106
vn -0.0026 1.0000 -0.0018
vn -0.0048 1.0000 -0.0032
vn -0.2127 0.9651 -0.1530
vn -0.1727 0.9783 -0.1142
vn -0.4079 0.8645 -0.2938
vn -0.3570 0.9038 -0.2361
vn -0.5751 0.7052 -0.4146
vn -0.5576 0.7438 -0.3686
vn -0.5081 0.7931 -0.3359
vn -0.6620 0.6084 -0.4376
vn -0.6434 0.6085 -0.4645
vn 0.5430 0.7067 0.4535
vn 0.6114 0.6066 0.5082
vn 0.3826 0.8663 0.3211
vn 0.1962 0.9664 0.1658
vn -0.0027 1.0000 -0.0021
vn -0.2003 0.9648 -0.1707
vn -0.3828 0.8636 -0.3281
vn -0.5384 0.7039 -0.4633
vn -0.6011 0.6073 -0.5195
vn 0.5002 0.6114 0.6131
vn 0.4387 0.7161 0.5429
vn 0.3056 0.8731 0.3800
vn 0.1530 0.9695 0.1917
vn -0.0083 0.9999 -0.0094
vn -0.1677 0.9632 -0.2099
vn -0.3148 0.8622 -0.3968
vn -0.4406 0.7035 -0.5577
vn -0.4881 0.6115 -0.6228
vn 0.2869 0.7130 0.6398
vn 0.3240 0.6107 0.7225
vn 0.2013 0.8707 0.4488
vn 0.1022 0.9683 0.2280
vn -0.0034 1.0000 -0.0076
vn -0.1086 0.9641 -0.2421
vn -0.2064 0.8635 -0.4602
vn -0.2903 0.7047 -0.6474
vn -0.3240 0.6107 -0.7225
vn 0.1467 0.7138 0.6848
vn 0.1658 0.6111 0.7740
vn 0.1028 0.8712 0.4800
vn 0.0521 0.9685 0.2433
vn -0.0019 1.0000 -0.0089
vn -0.0557 0.9640 -0.2600
vn -0.1057 0.8634 -0.4934
vn -0.1486 0.7046 -0.6938
vn -0.1658 0.6111 -0.7740
vn -0.0091 0.7141 0.7000
vn -0.0103 0.6113 0.7914
vn -0.0064 0.8714 0.4904
vn -0.0032 0.9686 0.2485
vn 0.0001 1.0000 -0.0094
vn 0.0035 0.9640 -0.2660
vn 0.0066 0.8633 -0.5046
vn 0.0092 0.7046 -0.7095
vn 0.0103 0.6113 -0.7914
vn -0.1645 0.7138 0.6808
vn -0.1859 0.6111 0.7694
vn -0.1153 0.8712 0.4772
vn -0.0584 0.9685 0.2419
vn 0.0021 1.0000 -0.0088
vn 0.0624 0.9640 -0.2584
vn 0.1185 0.8634 -0.4905
vn 0.1666 0.7046 -0.6897
vn 0.1859 0.6111 -0.7694
vn -0.3035 0.7130 0.6321
vn -0.3427 0.6107 0.7138
vn -0.2129 0.8707 0.4434
vn -0.1081 0.9683 0.2252
vn 0.0036 1.0000 -0.0075
vn 0.1149 0.9641 -0.2392
vn 0.2183 0.8635 -0.4547
vn 0.3071 0.7047 -0.6396
vn 0.3427 0.6107 -0.7138
vn -0.4170 0.7121 0.5648
vn -0.4705 0.6102 0.6374
vn -0.2929 0.8700 0.3967
vn -0.1491 0.9680 0.2020
vn 0.0043 1.0000 -0.0059
vn 0.1572 0.9643 -0.2129
vn 0.2994 0.8637 -0.4055
vn 0.4213 0.7048 -0.5707
vn 0.4705 0.6102 -0.6374
vn -0.5681 0.6099 0.5526
vn -0.5039 0.7112 0.4902
vn -0.3543 0.8693 0.3446
vn -0.1809 0.9676 0.1759
vn 0.0045 1.0000 -0.0044
vn 0.1892 0.9645 -0.1841
vn 0.3610 0.8639 -0.3512
vn 0.5084 0.7050 -0.4945
vn 0.5681 0.6098 -0.5526
vn -0.6396 0.6094 0.4685
vn -0.5678 0.7104 0.4158
vn -0.3997 0.8687 0.2926
vn -0.2045 0.9674 0.1497
vn 0.0043 1.0000 -0.0031
vn 0.2126 0.9647 -0.1555
vn 0.4063 0.8641 -0.2971
vn 0.5724 0.7051 -0.4186
vn 0.6399 0.6096 -0.4679
vn -0.6689 0.6085 0.4269
vn -0.5610 0.7464 0.3580
vn -0.5134 0.7932 0.3275
vn -0.3590 0.9048 0.2289
vn -0.1697 0.9795 0.1082
vn 0.0035 1.0000 -0.0022
vn 0.1738 0.9785 -0.1107
vn 0.3607 0.9040 -0.2296
vn 0.5137 0.7932 -0.3269
vn 0.5634 0.7444 -0.3585
vn 0.6694 0.6087 -0.4259
vn 0.2845 -0.3352 0.8982
vn -0.0351 -0.6563 0.7537
vn 0.3860 -0.8843 0.2627
vn 0.7452 -0.4342 0.5061
vn 0.2873 0.1394 0.9476
vn 0.8122 0.1893 0.5518
vn 0.1975 0.3628 0.9107
vn 0.7157 0.5008 0.4868
vn 0.6728 0.6086 0.4208
vn 0.6502 0.6418 0.4067
vn 0.0994 0.5144 0.8518
vn 0.6558 0.6082 0.4473
vn 0.4562 0.8428 0.2856
vn -0.0290 0.6317 0.7747
vn 0.5159 0.7934 0.3229
vn 0.2216 0.9652 0.1390
vn -0.1792 0.7067 0.6844
vn 0.3242 0.9239 0.2032
vn 0.0027 1.0000 0.0016
vn -0.3414 0.7343 0.5867
vn -0.2165 0.9667 -0.1363
vn -0.5047 0.7119 0.4883
vn -0.4526 0.8448 -0.2853
vn -0.6580 0.6406 0.3958
vn -0.3238 0.9239 -0.2038
vn -0.6481 0.6425 -0.4089
vn -0.7906 0.5246 0.3156
vn -0.5149 0.7933 -0.3247
vn -0.6712 0.6084 -0.4235
vn -0.6515 0.6085 -0.4531
vn -0.7113 0.4981 -0.4959
vn -0.8930 0.3717 0.2538
vn -0.9718 0.1413 0.1890
vn -0.8059 0.1856 -0.5623
vn -0.9198 -0.3533 0.1707
vn -0.7347 -0.4441 -0.5128
vn -0.6146 -0.6775 0.4041
vn -0.3601 -0.8986 -0.2508
vn -0.3732 -0.7435 0.5549
vn -0.0511 -0.9981 -0.0353
vn -0.0275 -0.6835 0.7294
vn 0.3656 -0.8953 0.2545
vn 0.1915 -0.4005 0.8961
vn 0.6877 -0.5465 0.4779
vn 0.1947 -0.3593 0.9127
vn 0.7121 -0.4980 0.4948
vn 0.0989 -0.5102 0.8543
vn 0.5828 -0.7049 0.4043
vn -0.0273 -0.6282 0.7776
vn 0.4136 -0.8642 0.2864
vn -0.1759 -0.7048 0.6872
vn 0.2160 -0.9649 0.1491
vn -0.3375 -0.7342 0.5892
vn 0.0030 -1.0000 0.0019
vn -0.5011 -0.7133 0.4900
vn -0.2108 -0.9667 -0.1451
vn -0.6552 -0.6429 0.3966
vn -0.4107 -0.8672 -0.2817
vn -0.7889 -0.5272 0.3158
vn -0.5826 -0.7082 -0.3987
vn -0.8922 -0.3740 0.2533
vn -0.7147 -0.5008 -0.4882
vn -0.8756 -0.4119 0.2524
vn -0.6923 -0.5453 -0.4727
vn -0.6104 -0.6973 0.3757
vn -0.3637 -0.8980 -0.2477
vn -0.2744 -0.7404 0.6135
vn 0.0764 -0.9957 0.0523
vn 0.3583 -0.8852 0.2969
vn 0.6908 -0.4372 0.5759
vn 0.7521 0.1891 0.6313
vn 0.6613 0.5010 0.5583
vn 0.6047 0.6078 0.5147
vn -0.5980 0.6084 -0.5218
vn -0.6521 0.4970 -0.5725
vn -0.7372 0.1847 -0.6499
vn -0.6712 -0.4425 -0.5947
vn -0.3291 -0.8976 -0.2931
vn -0.0465 -0.9979 -0.0444
vn 0.3336 -0.8971 0.2896
vn 0.6306 -0.5477 0.5499
vn 0.6540 -0.4968 0.5705
vn 0.5368 -0.7035 0.4657
vn 0.3831 -0.8630 0.3293
vn 0.2026 -0.9643 0.1708
vn 0.0071 -1.0000 0.0010
vn -0.1901 -0.9672 -0.1682
vn -0.3754 -0.8680 -0.3252
vn -0.5355 -0.7089 -0.4590
vn -0.6590 -0.5011 -0.5609
vn -0.6389 -0.5440 -0.5439
vn -0.3371 -0.8961 -0.2887
vn 0.0715 -0.9959 0.0557
vn 0.2865 -0.8901 0.3545
vn 0.5670 -0.4433 0.6943
vn 0.6204 0.1936 0.7600
vn 0.5446 0.5065 0.6685
vn 0.4979 0.6102 0.6163
vn -0.4888 0.6109 -0.6229
vn -0.5333 0.4981 -0.6838
vn -0.6038 0.1857 -0.7752
vn -0.5528 -0.4362 -0.7100
vn -0.2748 -0.8954 -0.3505
vn -0.0446 -0.9975 -0.0552
vn 0.2651 -0.9023 0.3400
vn 0.5146 -0.5521 0.6560
vn 0.5350 -0.4980 0.6824
vn 0.4386 -0.7043 0.5582
vn 0.3126 -0.8631 0.3967
vn 0.1652 -0.9639 0.2088
vn 0.0058 -1.0000 0.0074
vn -0.1553 -0.9686 -0.1943
vn -0.3073 -0.8712 -0.3828
vn -0.4395 -0.7138 -0.5452
vn -0.5421 -0.5065 -0.6706
vn -0.5284 -0.5419 -0.6536
vn -0.2877 -0.8906 -0.3522
vn 0.0497 -0.9967 0.0641
vn 0.1887 -0.8901 0.4149
vn 0.3774 -0.4461 0.8115
vn 0.4171 0.1921 0.8883
vn 0.3678 0.5065 0.7799
vn 0.3372 0.6113 0.7159
vn -0.3296 0.6110 -0.7198
vn -0.3612 0.4979 -0.7884
vn -0.4104 0.1848 -0.8930
vn -0.3768 -0.4394 -0.8154
vn -0.1883 -0.8964 -0.4012
vn -0.0324 -0.9976 -0.0614
vn 0.1775 -0.9021 0.3932
vn 0.3472 -0.5530 0.7574
vn 0.3617 -0.4979 0.7882
vn 0.2952 -0.7043 0.6456
vn 0.2090 -0.8630 0.4599
vn 0.1085 -0.9638 0.2435
vn 0.0004 -0.9999 0.0107
vn -0.1083 -0.9687 -0.2233
vn -0.2103 -0.8716 -0.4428
vn -0.2986 -0.7142 -0.6331
vn -0.3667 -0.5065 -0.7804
vn -0.3569 -0.5446 -0.7590
vn -0.1949 -0.8926 -0.4066
vn 0.0303 -0.9965 0.0773
vn 0.0942 -0.8896 0.4470
vn 0.1848 -0.4440 0.8768
vn 0.2024 0.1924 0.9602
vn 0.1779 0.5063 0.8438
vn 0.1633 0.6111 0.7745
vn -0.1633 0.6111 -0.7745
vn -0.1788 0.4983 -0.8484
vn -0.2027 0.1852 -0.9616
vn -0.1853 -0.4388 -0.8793
vn -0.0914 -0.8963 -0.4338
vn -0.0143 -0.9976 -0.0678
vn 0.0891 -0.9019 0.4227
vn 0.1719 -0.5526 0.8155
vn 0.1788 -0.4983 0.8484
vn 0.1464 -0.7046 0.6943
vn 0.1041 -0.8633 0.4938
vn 0.0548 -0.9640 0.2602
vn 0.0019 -1.0000 0.0090
vn -0.0513 -0.9686 -0.2435
vn -0.1012 -0.8713 -0.4803
vn -0.1444 -0.7138 -0.6853
vn -0.1779 -0.5063 -0.8438
vn -0.1730 -0.5443 -0.8209
vn -0.0929 -0.8928 -0.4407
vn 0.0172 -0.9965 0.0817
vn -0.0079 -0.8898 0.4563
vn -0.0156 -0.4445 0.8956
vn -0.0171 0.1926 0.9811
vn -0.0150 0.5065 0.8621
vn -0.0138 0.6113 0.7913
vn 0.0138 0.6113 -0.7913
vn 0.0151 0.4983 -0.8669
vn 0.0171 0.1852 -0.9825
vn 0.0156 -0.4385 -0.8986
vn 0.0077 -0.8962 -0.4435
vn 0.0012 -0.9976 -0.0697
vn -0.0075 -0.9022 0.4312
vn -0.0145 -0.5530 0.8331
vn -0.0151 -0.4983 0.8669
vn -0.0123 -0.7046 0.7095
vn -0.0088 -0.8633 0.5046
vn -0.0046 -0.9640 0.2660
vn -0.0002 -1.0000 0.0094
vn 0.0043 -0.9686 -0.2484
vn 0.0085 -0.8715 -0.4904
vn 0.0122 -0.7141 -0.6999
vn 0.0150 -0.5065 -0.8621
vn 0.0146 -0.5443 -0.8388
vn 0.0078 -0.8926 -0.4508
vn -0.0014 -0.9965 0.0830
vn -0.1095 -0.8895 0.4436
vn -0.2147 -0.4439 0.8700
vn -0.2351 0.1924 0.9527
vn -0.2066 0.5062 0.8373
vn -0.1897 0.6111 0.7685
vn 0.1897 0.6111 -0.7685
vn 0.2077 0.4983 -0.8418
vn 0.2355 0.1853 -0.9541
vn 0.2153 -0.4388 -0.8724
vn 0.1062 -0.8964 -0.4304
vn 0.0166 -0.9976 -0.0672
vn -0.1035 -0.9018 0.4196
vn -0.1997 -0.5526 0.8092
vn -0.2077 -0.4983 0.8418
vn -0.1700 -0.7046 0.6889
vn -0.1209 -0.8634 0.4899
vn -0.0637 -0.9640 0.2581
vn -0.0022 -1.0000 0.0088
vn 0.0596 -0.9685 -0.2416
vn 0.1176 -0.8712 -0.4766
vn 0.1678 -0.7138 -0.6800
vn 0.2066 -0.5062 -0.8373
vn 0.2010 -0.5443 -0.8145
vn 0.1079 -0.8929 -0.4372
vn -0.0200 -0.9965 0.0811
vn -0.2003 -0.8888 0.4122
vn -0.3919 -0.4425 0.8066
vn -0.4289 0.1919 0.8827
vn -0.3771 0.5055 0.7761
vn -0.3461 0.6107 0.7123
vn 0.3460 0.6107 -0.7123
vn 0.3789 0.4982 -0.7799
vn 0.4294 0.1853 -0.8839
vn 0.3925 -0.4397 -0.8079
vn 0.1934 -0.8967 -0.3981
vn 0.0298 -0.9977 -0.0613
vn -0.1898 -0.9008 0.3906
vn -0.3645 -0.5516 0.7502
vn -0.3789 -0.4982 0.7799
vn -0.3101 -0.7047 0.6382
vn -0.2204 -0.8635 0.4537
vn -0.1160 -0.9642 0.2387
vn -0.0036 -1.0000 0.0074
vn 0.1092 -0.9683 -0.2248
vn 0.2150 -0.8707 -0.4424
vn 0.3064 -0.7130 -0.6307
vn 0.3771 -0.5055 -0.7761
vn 0.3665 -0.5445 -0.7545
vn 0.1961 -0.8936 -0.4037
vn -0.0371 -0.9964 0.0763
vn -0.2746 -0.8879 0.3691
vn -0.5358 -0.4409 0.7201
vn -0.5859 0.1914 0.7874
vn -0.5154 0.5046 0.6927
vn -0.4729 0.6102 0.6356
vn 0.4729 0.6102 -0.6356
vn 0.5176 0.4983 -0.6956
vn 0.5866 0.1854 -0.7884
vn 0.5358 -0.4407 -0.7202
vn 0.2637 -0.8972 -0.3544
vn 0.0398 -0.9978 -0.0535
vn -0.2607 -0.8996 0.3504
vn -0.4983 -0.5505 0.6698
vn -0.5176 -0.4983 0.6956
vn -0.4235 -0.7048 0.5691
vn -0.3009 -0.8637 0.4044
vn -0.1580 -0.9643 0.2123
vn -0.0043 -1.0000 0.0058
vn 0.1499 -0.9679 -0.2015
vn 0.2944 -0.8699 -0.3956
vn 0.4191 -0.7121 -0.5633
vn 0.5154 -0.5046 -0.6927
vn 0.5006 -0.5447 -0.6728
vn 0.2668 -0.8946 -0.3586
vn -0.0516 -0.9963 0.0693
vn -0.3317 -0.8871 0.3211
vn -0.6456 -0.4392 0.6248
vn -0.7054 0.1909 0.6826
vn -0.6208 0.5037 0.6008
vn -0.5695 0.6098 0.5512
vn 0.5695 0.6098 -0.5512
vn 0.6230 0.4983 -0.6029
vn 0.7061 0.1855 -0.6834
vn 0.6446 -0.4418 -0.6239
vn 0.3167 -0.8976 -0.3065
vn 0.0469 -0.9979 -0.0454
vn -0.3157 -0.8984 0.3055
vn -0.6004 -0.5495 0.5810
vn -0.6230 -0.4983 0.6029
vn -0.5096 -0.7050 0.4932
vn -0.3619 -0.8639 0.3502
vn -0.1897 -0.9645 0.1835
vn -0.0044 -1.0000 0.0043
vn 0.1814 -0.9676 -0.1755
vn 0.3552 -0.8693 -0.3438
vn 0.5052 -0.7112 -0.4889
vn 0.6208 -0.5037 -0.6008
vn 0.6025 -0.5450 -0.5831
vn 0.3198 -0.8955 -0.3095
vn -0.0632 -0.9961 0.0612
vn -0.3740 -0.8862 0.2733
vn -0.7259 -0.4377 0.5305
vn -0.7926 0.1905 0.5793
vn -0.6979 0.5028 0.5100
vn -0.6402 0.6093 0.4678
vn 0.6407 0.6094 -0.4671
vn 0.7006 0.4983 -0.5108
vn 0.7940 0.1856 -0.5788
vn 0.7246 -0.4427 -0.5282
vn 0.3556 -0.8980 -0.2592
vn 0.0519 -0.9979 -0.0378
vn -0.3567 -0.8973 0.2601
vn -0.6756 -0.5485 0.4927
vn -0.7005 -0.4983 0.5109
vn -0.5730 -0.7050 0.4179
vn -0.4067 -0.8641 0.2966
vn -0.2128 -0.9647 0.1552
vn -0.0043 -1.0000 0.0031
vn 0.2047 -0.9673 -0.1495
vn 0.4001 -0.8686 -0.2922
vn 0.5684 -0.7103 -0.4152
vn 0.6980 -0.5029 -0.5099
vn 0.6769 -0.5452 -0.4945
vn 0.3580 -0.8964 -0.2615
vn -0.0722 -0.9960 0.0528
vn -0.2803 -0.3349 0.8996
vn 0.0372 -0.6555 0.7543
vn -0.2828 0.1391 0.9490
vn -0.1939 0.3617 0.9119
vn -0.6468 0.6414 0.4126
vn -0.6691 0.6083 0.4268
vn -0.0970 0.5129 0.8529
vn 0.0303 0.6305 0.7756
vn -0.4547 0.8421 0.2899
vn -0.5138 0.7929 0.3276
vn 0.1798 0.7062 0.6848
vn -0.2214 0.9649 0.1410
vn -0.3232 0.9237 0.2059
vn 0.3417 0.7343 0.5866
vn -0.0030 1.0000 0.0019
vn 0.5050 0.7122 0.4876
vn 0.2159 0.9667 -0.1373
vn 0.6584 0.6409 0.3947
vn 0.4519 0.8446 -0.2871
vn 0.3233 0.9237 -0.2056
vn 0.7909 0.5249 0.3146
vn 0.6469 0.6425 -0.4107
vn 0.5143 0.7930 -0.3266
vn 0.6700 0.6084 -0.4254
vn 0.8931 0.3721 0.2528
vn 0.9719 0.1414 0.1880
vn 0.9199 -0.3534 0.1699
vn 0.6145 -0.6778 0.4036
vn 0.3733 -0.7436 0.5547
vn 0.0283 -0.6835 0.7294
vn -0.1901 -0.4002 0.8965
vn -0.1931 -0.3588 0.9132
vn -0.0976 -0.5095 0.8549
vn 0.0281 -0.6275 0.7781
vn 0.1762 -0.7043 0.6877
vn 0.3372 -0.7342 0.5893
vn 0.5004 -0.7141 0.4895
vn 0.6546 -0.6444 0.3952
vn 0.7886 -0.5291 0.3132
vn 0.8924 -0.3758 0.2497
vn 0.8760 -0.4129 0.2492
vn 0.6109 -0.6980 0.3736
vn 0.2753 -0.7403 0.6133
vt 0.999044 1.000000
vt 0.998883 1.000000
vt 0.999861 0.997711
vt 1.000000 1.000000
vt 0.999167 0.975000
vt 1.000000 0.975000
vt 0.000833 0.975000
vt 0.001117 1.000000
vt 0.000139 1.000000
vt -0.000000 0.975000
vt 0.000956 1.000000
vt -0.000000 1.000000
vt 0.834290 1.000000
vt 0.833333 1.000000
vt 0.833333 0.998856
vt 0.834450 1.000000
vt 0.832377 1.000000
vt 0.832217 1.000000
vt 0.832500 0.975000
vt 0.833333 0.975000
vt 0.834167 0.975000
vt 0.667623 1.000000
vt 0.666667 1.000000
vt 0.666667 0.998856
vt 0.667783 1.000000
vt 0.665710 1.000000
vt 0.665550 1.000000
vt 0.665833 0.975000
vt 0.666667 0.975000
vt 0.667500 0.975000
vt 0.500956 1.000000
vt 0.500000 1.000000
vt 0.500000 0.998856
vt 0.501117 1.000000
vt 0.499044 1.000000
vt 0.498883 1.000000
vt 0.499167 0.975000
vt 0.500000 0.975000
vt 0.500833 0.975000
vt 0.334290 1.000000
vt 0.333333 1.000000
vt 0.333333 0.998856
vt 0.334450 1.000000
vt 0.332377 1.000000
vt 0.332217 1.000000
vt 0.332500 0.975000
vt 0.333333 0.975000
vt 0.334167 0.975000
vt 0.167623 1.000000
vt 0.166667 1.000000
vt 0.166667 0.998856
vt 0.167783 1.000000
vt 0.165710 1.000000
vt 0.165550 1.000000
vt 0.165833 0.975000
vt 0.166667 0.975000
vt 0.167500 0.975000
vt 0.834295 1.000000
vt 0.833333 1.000000
vt 0.834261 1.000000
vt 0.832372 1.000000
vt 0.832406 1.000000
vt 0.832358 1.000000
vt 0.834309 1.000000
vt 0.999039 1.000000
vt 0.999073 1.000000
vt 0.999935 1.000000
vt 0.999025 1.000000
vt 0.000975 1.000000
vt 0.000927 1.000000
vt 0.000065 1.000000
vt 0.000961 1.000000
vt 0.667628 1.000000
vt 0.667594 1.000000
vt 0.665705 1.000000
vt 0.665739 1.000000
vt 0.665691 1.000000
vt 0.667642 1.000000
vt 0.500961 1.000000
vt 0.500927 1.000000
vt 0.499038 1.000000
vt 0.499073 1.000000
vt 0.499025 1.000000
vt 0.500975 1.000000
vt 0.334295 1.000000
vt 0.334260 1.000000
vt 0.332372 1.000000
vt 0.332406 1.000000
vt 0.332358 1.000000
vt 0.334309 1.000000
vt 0.167628 1.000000
vt 0.166667 1.000000
vt 0.167594 1.000000
vt 0.165705 1.000000
vt 0.165739 1.000000
vt 0.165691 1.000000
vt 0.167642 1.000000
vt 0.834300 1.000000
vt 0.833891 1.000000
vt 0.833356 1.000000
vt 0.456551 0.369252
vt 0.457846 0.369196
vt 0.457846 0.369934
vt 0.457150 0.370402
vt 0.832367 1.000000
vt 0.832775 1.000000
vt 0.999034 1.000000
vt 0.999442 1.000000
vt 0.000966 1.000000
vt 0.000558 1.000000
vt 0.000046 1.000000
vt 0.250000 0.488505
vt 0.250696 0.489598
vt 0.250057 0.489967
vt 0.249304 0.489598
vt 0.667633 1.000000
vt 0.667225 1.000000
vt 0.666690 1.000000
vt 0.456551 0.130748
vt 0.457150 0.129598
vt 0.457789 0.129967
vt 0.457846 0.130804
vt 0.665700 1.000000
vt 0.666109 1.000000
vt 0.500966 1.000000
vt 0.500558 1.000000
vt 0.500023 1.000000
vt 0.250000 0.011496
vt 0.249304 0.010402
vt 0.249943 0.010033
vt 0.250696 0.010402
vt 0.499034 1.000000
vt 0.499442 1.000000
vt 0.334300 1.000000
vt 0.333891 1.000000
vt 0.333356 1.000000
vt 0.043449 0.130748
vt 0.042154 0.130804
vt 0.042154 0.130066
vt 0.042850 0.129598
vt 0.332367 1.000000
vt 0.332775 1.000000
vt 0.167633 1.000000
vt 0.167225 1.000000
vt 0.166690 1.000000
vt 0.043449 0.369252
vt 0.042850 0.370402
vt 0.042211 0.370033
vt 0.042154 0.369196
vt 0.165700 1.000000
vt 0.166108 1.000000
vt 0.000833 0.750000
vt -0.000000 0.750000
vt 1.000000 0.750000
vt 0.999167 0.750000
vt 0.748588 0.975788
vt 0.744196 0.975246
vt 0.742588 1.000000
vt 0.757412 1.000000
vt 0.755804 0.975246
vt 0.748827 0.975246
vt 0.741628 1.000000
vt 0.741538 1.000000
vt 0.758372 1.000000
vt 0.758462 1.000000
vt 0.590152 0.975000
vt 0.591766 1.000000
vt 0.577157 0.975000
vt 0.575524 1.000000
vt 0.575303 1.000000
vt 0.574777 1.000000
vt 0.591979 1.000000
vt 0.592468 1.000000
vt 0.423959 0.975000
vt 0.425592 1.000000
vt 0.410946 0.975000
vt 0.409329 1.000000
vt 0.409117 1.000000
vt 0.408630 1.000000
vt 0.425815 1.000000
vt 0.426341 1.000000
vt 0.243764 0.981898
vt 0.242588 1.000000
vt 0.257412 1.000000
vt 0.256236 0.981898
vt 0.241628 1.000000
vt 0.241538 1.000000
vt 0.258372 1.000000
vt 0.258462 1.000000
vt 0.832500 0.750000
vt 0.833333 0.750000
vt 0.834167 0.750000
vt 0.165833 0.750000
vt 0.166667 0.750000
vt 0.167500 0.750000
vt 0.332500 0.750000
vt 0.333333 0.750000
vt 0.334167 0.749986
vt 0.499167 0.747175
vt 0.500000 0.747164
vt 0.500833 0.747175
vt 0.665833 0.749986
vt 0.666667 0.750000
vt 0.667500 0.750000
vt 0.762454 1.000000
vt 0.762071 1.000000
vt 0.762576 1.000000
vt 0.737546 1.000000
vt 0.737424 1.000000
vt 0.737929 1.000000
vt 0.736971 1.000000
vt 0.763029 1.000000
vt 0.596128 1.000000
vt 0.595794 1.000000
vt 0.591288 1.000000
vt 0.590773 1.000000
vt 0.570494 1.000000
vt 0.570895 1.000000
vt 0.576716 1.000000
vt 0.576138 1.000000
vt 0.570008 1.000000
vt 0.575400 1.000000
vt 0.596552 1.000000
vt 0.591967 1.000000
vt 0.430624 1.000000
vt 0.430224 1.000000
vt 0.425389 1.000000
vt 0.424789 1.000000
vt 0.405332 1.000000
vt 0.405001 1.000000
vt 0.410721 1.000000
vt 0.410227 1.000000
vt 0.431107 1.000000
vt 0.426145 1.000000
vt 0.404579 1.000000
vt 0.409566 1.000000
vt 0.237546 1.000000
vt 0.237424 1.000000
vt 0.237929 1.000000
vt 0.262454 1.000000
vt 0.262071 1.000000
vt 0.262576 1.000000
vt 0.236971 1.000000
vt 0.263029 1.000000
vt 0.764236 1.000000
vt 0.764634 1.000000
vt 0.735366 1.000000
vt 0.735764 1.000000
vt 0.457846 0.271072
vt 0.456551 0.271271
vt 0.456551 0.228729
vt 0.457846 0.228928
vt 0.568299 1.000000
vt 0.568730 1.000000
vt 0.573915 1.000000
vt 0.573506 1.000000
vt 0.597699 1.000000
vt 0.598066 1.000000
vt 0.593676 1.000000
vt 0.593329 1.000000
vt 0.334309 0.060171
vt 0.335175 0.059176
vt 0.341668 0.062925
vt 0.340802 0.063920
vt 0.372296 0.080608
vt 0.371778 0.081804
vt 0.366302 0.078642
vt 0.366821 0.077447
vt 0.432811 1.000000
vt 0.432381 1.000000
vt 0.428100 1.000000
vt 0.427673 1.000000
vt 0.403440 1.000000
vt 0.403076 1.000000
vt 0.408245 1.000000
vt 0.407918 1.000000
vt 0.167067 0.059377
vt 0.166210 0.058376
vt 0.161219 0.062753
vt 0.160336 0.061768
vt 0.129129 0.079785
vt 0.129646 0.080982
vt 0.135166 0.076299
vt 0.135704 0.077484
vt 0.235366 1.000000
vt 0.235764 1.000000
vt 0.264236 1.000000
vt 0.264634 1.000000
vt 0.043449 0.271271
vt 0.042154 0.271072
vt 0.042154 0.228928
vt 0.043449 0.228729
vt 0.587966 0.947821
vt 0.583655 0.930784
vt 0.579344 0.947821
vt 0.570953 1.000000
vt 0.595748 1.000000
vt 0.589985 1.000000
vt 0.587066 1.000000
vt 0.583989 1.000000
vt 0.580823 1.000000
vt 0.577636 1.000000
vt 0.421770 0.947821
vt 0.417452 0.930784
vt 0.413135 0.947821
vt 0.405378 1.000000
vt 0.430166 1.000000
vt 0.423823 1.000000
vt 0.420544 1.000000
vt 0.417345 1.000000
vt 0.414294 1.000000
vt 0.411463 1.000000
vt 0.574709 1.000000
vt 0.592614 1.000000
vt 0.426851 1.000000
vt 0.408933 1.000000
vt 0.201423 0.101961
vt 0.185665 0.085681
vt 0.171731 0.066832
vt 0.330063 0.066830
vt 0.314141 0.085954
vt 0.297825 0.100468
vt 0.281455 0.110558
vt 0.265251 0.116512
vt 0.249214 0.118638
vt 0.233139 0.117074
vt 0.216808 0.111689
vt 0.336305 0.070965
vt 0.319775 0.090743
vt 0.302620 0.105906
vt 0.285141 0.116575
vt 0.267562 0.122937
vt 0.249966 0.125182
vt 0.232312 0.123395
vt 0.214557 0.117488
vt 0.196779 0.107263
vt 0.182052 0.090874
vt 0.166323 0.070468
vt 0.137443 0.093336
vt 0.155349 0.116697
vt 0.176424 0.137811
vt 0.199099 0.151387
vt 0.224164 0.159653
vt 0.249972 0.162162
vt 0.275677 0.158756
vt 0.300449 0.149653
vt 0.323740 0.135297
vt 0.345305 0.116114
vt 0.365065 0.092380
vt 0.142990 0.088506
vt 0.161442 0.112001
vt 0.179857 0.131483
vt 0.202453 0.144479
vt 0.226109 0.152349
vt 0.250351 0.154803
vt 0.274516 0.151719
vt 0.297944 0.143241
vt 0.320168 0.129676
vt 0.340932 0.111323
vt 0.360105 0.088383
vt 0.942888 1.000000
vt 0.916667 1.000000
vt 0.916667 0.998784
vt 0.926220 0.999607
vt 0.916667 0.501110
vt 0.916667 0.500000
vt 0.938409 0.500000
vt 0.926220 0.500288
vt 0.915664 0.998647
vt 0.875000 1.000000
vt 0.875000 0.986659
vt 0.878870 0.987506
vt 0.878870 0.512388
vt 0.875000 0.513236
vt 0.875000 0.500000
vt 0.915664 0.501247
vt 0.851961 0.982687
vt 0.867659 0.985095
vt 0.873526 0.986238
vt 0.833333 1.000000
vt 0.833333 0.500000
vt 0.873525 0.513656
vt 0.867659 0.514799
vt 0.851961 0.517207
vt 0.847102 0.518376
vt 0.845089 0.519705
vt 0.845089 0.980189
vt 0.847102 0.981519
vt 0.148039 0.517207
vt 0.132341 0.514799
vt 0.126474 0.513656
vt 0.125000 0.513236
vt 0.125000 0.500000
vt 0.166666 0.500000
vt 0.166666 1.000000
vt 0.125000 1.000000
vt 0.125000 0.986659
vt 0.126474 0.986238
vt 0.132341 0.985095
vt 0.148038 0.982687
vt 0.152898 0.981519
vt 0.154911 0.980189
vt 0.154911 0.519705
vt 0.152898 0.518376
vt 0.084336 0.501247
vt 0.083333 0.501110
vt 0.083333 0.500000
vt 0.121130 0.512388
vt 0.121130 0.987506
vt 0.083333 1.000000
vt 0.083333 0.998784
vt 0.084336 0.998647
vt 0.061591 0.500000
vt 0.073780 0.500288
vt 0.057112 1.000000
vt 0.073780 0.999607
vt 0.958333 0.617126
vt 0.958333 0.882782
vt 1.000000 0.882782
vt 1.000000 0.617126
vt 0.916667 0.617126
vt 0.916667 0.882782
vt 0.875000 0.617126
vt 0.875000 0.882782
vt 0.833333 0.882782
vt 0.833333 0.617126
vt 0.125000 0.617126
vt 0.125000 0.882782
vt 0.166666 0.882782
vt 0.166666 0.617126
vt 0.083333 0.617126
vt 0.083333 0.882782
vt 0.041666 0.617126
vt 0.041666 0.882782
vt -0.000000 0.617127
vt -0.000000 0.882782
vt 0.803283 0.500000
vt 0.803284 1.000000
vt 0.791667 0.999606
vt 0.791667 0.500394
vt 0.978077 0.311056
vt 0.489317 0.328477
vt 0.567623 0.467759
vt 0.964137 0.307804
vt 0.533857 0.308514
vt 0.063653 0.444324
vt 0.025183 0.326572
vt 0.521848 0.311179
vt 0.208333 0.500394
vt 0.208333 0.999606
vt 0.196684 1.000000
vt 0.196684 0.500000
vt 0.807993 0.882782
vt 0.807993 0.617126
vt 0.791667 0.617336
vt 0.784307 0.868942
vt 0.923656 0.295209
vt 0.936768 0.300097
vt 0.707559 0.725555
vt 0.165234 0.748991
vt 0.572811 0.299386
vt 0.587962 0.295045
vt 0.204768 0.871557
vt 0.208333 0.617336
vt 0.191961 0.617126
vt 0.191961 0.882782
vt 0.707560 0.725556
vt 0.567623 0.467759
vt 0.426890 0.979926
vt 0.387221 0.979740
vt 0.025185 0.326581
vt 0.063653 0.444322
vt 0.165233 0.748990
vt 0.204768 0.871556
vt 0.999999 0.882782
vt 0.914092 0.310338
vt 0.975137 0.328255
vt 0.524881 0.328300
vt 0.597569 0.310383
vt 0.903716 0.335387
vt 0.876577 0.370756
vt 0.841208 0.397895
vt 0.800021 0.414955
vt 0.755821 0.420774
vt 0.711621 0.414956
vt 0.670434 0.397895
vt 0.635065 0.370756
vt 0.607926 0.335387
vt 0.542154 0.370000
vt 0.580294 0.419706
vt 0.630000 0.457846
vt 0.660204 0.470357
vt 0.839796 0.470357
vt 0.870000 0.457846
vt 0.919706 0.419706
vt 0.957846 0.370000
vt 0.049743 0.319054
vt 0.052914 0.312224
vt 0.056441 0.309395
vt 0.083333 0.309396
vt 0.083333 0.333333
vt 0.045451 0.333333
vt 0.043044 0.343474
vt 0.083333 0.375000
vt 0.029309 0.375000
vt 0.036483 0.362357
vt 0.039888 0.354217
vt 0.029308 0.375000
vt 0.083333 0.416667
vt 0.014464 0.416667
vt 0.083333 0.458333
vt 0.009281 0.458333
vt 0.083333 0.500000
vt 0.013584 0.500000
vt 0.083333 0.541667
vt 0.026587 0.541667
vt 0.083333 0.583333
vt 0.040063 0.583333
vt 0.038244 0.573190
vt 0.035730 0.562444
vt 0.032861 0.554306
vt 0.026587 0.541667
vt 0.046129 0.604440
vt 0.043508 0.597611
vt 0.083333 0.607270
vt 0.049177 0.607269
vt 0.166667 0.333333
vt 0.166667 0.309396
vt 0.166667 0.375000
vt 0.166667 0.416667
vt 0.166667 0.458333
vt 0.166667 0.500000
vt 0.166667 0.541667
vt 0.166667 0.583333
vt 0.166667 0.607270
vt 0.250000 0.309396
vt 0.250000 0.333333
vt 0.250000 0.375000
vt 0.250000 0.416667
vt 0.250000 0.458333
vt 0.250000 0.500000
vt 0.250000 0.541667
vt 0.250000 0.583333
vt 0.250000 0.607270
vt 0.333333 0.333333
vt 0.333333 0.309396
vt 0.333333 0.375000
vt 0.333333 0.416667
vt 0.333333 0.458333
vt 0.333333 0.500000
vt 0.333333 0.541667
vt 0.333333 0.583333
vt 0.333333 0.607270
vt 0.416667 0.333333
vt 0.416667 0.309396
vt 0.416667 0.375000
vt 0.416667 0.416667
vt 0.416667 0.458333
vt 0.416667 0.500000
vt 0.416667 0.541667
vt 0.416667 0.583333
vt 0.416667 0.607270
vt 0.500000 0.333333
vt 0.500000 0.309396
vt 0.500000 0.375000
vt 0.500000 0.416667
vt 0.500000 0.458333
vt 0.500000 0.500000
vt 0.500000 0.541667
vt 0.500000 0.583333
vt 0.500000 0.607270
vt 0.583333 0.333333
vt 0.583333 0.309396
vt 0.583333 0.375000
vt 0.583333 0.416667
vt 0.583333 0.458333
vt 0.583333 0.500000
vt 0.583333 0.541667
vt 0.583333 0.583333
vt 0.583333 0.607270
vt 0.666667 0.333333
vt 0.666667 0.309396
vt 0.666667 0.375000
vt 0.666667 0.416667
vt 0.666667 0.458333
vt 0.666667 0.500000
vt 0.666667 0.541667
vt 0.666667 0.583333
vt 0.666667 0.607270
vt 0.750000 0.333333
vt 0.750000 0.309396
vt 0.750000 0.375000
vt 0.750000 0.416667
vt 0.750000 0.458333
vt 0.750000 0.500000
vt 0.750000 0.541667
vt 0.750000 0.583333
vt 0.750000 0.607270
vt 0.833333 0.309396
vt 0.833333 0.333333
vt 0.833333 0.375000
vt 0.833333 0.416667
vt 0.833333 0.458333
vt 0.833333 0.500000
vt 0.833333 0.541667
vt 0.833333 0.583333
vt 0.833333 0.607270
vt 0.916667 0.309396
vt 0.916667 0.333333
vt 0.916667 0.375000
vt 0.916667 0.416667
vt 0.916667 0.458333
vt 0.916667 0.500000
vt 0.916667 0.541667
vt 0.916667 0.583333
vt 0.916667 0.607270
vt 0.944175 0.312230
vt 0.947278 0.319061
vt 0.951457 0.333333
vt 0.940701 0.309400
vt 0.953779 0.343480
vt 0.956838 0.354231
vt 0.960159 0.362366
vt 0.967181 0.375000
vt 0.981597 0.416667
vt 0.986455 0.458333
vt 0.981942 0.500000
vt 0.968849 0.541667
vt 0.962582 0.554314
vt 0.959707 0.562456
vt 0.957170 0.573197
vt 0.955323 0.583333
vt 0.951865 0.597615
vt 0.949247 0.604446
vt 0.946222 0.607275
vt 0.003992 1.000000
vt 0.003932 0.966667
vt 0.083333 0.966667
vt 0.083333 1.000000
vt 0.003993 0.033333
vt 0.003992 0.000000
vt 0.083333 0.000000
vt 0.083333 0.033333
vt 0.003888 0.066667
vt 0.083333 0.066667
vt 0.037285 0.099523
vt 0.036658 0.100000
vt 0.003662 0.100000
vt 0.083333 0.073219
vt 0.057348 0.073224
vt 0.053766 0.074835
vt 0.050546 0.078725
vt 0.043823 0.091279
vt 0.040697 0.095970
vt 0.005770 0.133333
vt 0.003378 0.133333
vt 0.003661 0.100000
vt 0.007810 0.128817
vt 0.003940 0.166667
vt 0.003063 0.166667
vt 0.005770 0.133333
vt 0.005268 0.135063
vt 0.004123 0.148530
vt 0.003597 0.200000
vt 0.002742 0.200000
vt 0.003063 0.166667
vt 0.003940 0.166667
vt 0.003271 0.233333
vt 0.002438 0.233333
vt 0.003597 0.200000
vt 0.004329 0.266667
vt 0.002168 0.266667
vt 0.003113 0.251471
vt 0.003921 0.264939
vt 0.030510 0.300000
vt 0.001947 0.300000
vt 0.002168 0.266667
vt 0.004329 0.266667
vt 0.006065 0.271187
vt 0.030510 0.300000
vt 0.031034 0.300477
vt 0.033835 0.304034
vt 0.036322 0.308729
vt 0.041468 0.321289
vt 0.043995 0.325175
vt 0.046931 0.326784
vt 0.083333 0.326781
vt 0.001782 0.333333
vt 0.001947 0.300000
vt 0.001709 0.366667
vt 0.001782 0.333333
vt 0.083333 0.366667
vt 0.001710 0.400000
vt 0.001709 0.366667
vt 0.083333 0.400000
vt 0.001752 0.433333
vt 0.001710 0.400000
vt 0.083333 0.433333
vt 0.001919 0.466667
vt 0.001752 0.433333
vt 0.083333 0.466667
vt 0.001980 0.500000
vt 0.001919 0.466667
vt 0.002023 0.533333
vt 0.001980 0.500000
vt 0.083333 0.533333
vt 0.002069 0.566667
vt 0.002023 0.533333
vt 0.083333 0.566667
vt 0.002191 0.600000
vt 0.083333 0.600000
vt 0.002355 0.633333
vt 0.002191 0.600000
vt 0.083333 0.633333
vt 0.002552 0.666667
vt 0.083333 0.666667
vt 0.002772 0.700000
vt 0.002552 0.666667
vt 0.083333 0.700000
vt 0.002999 0.733333
vt 0.002772 0.700000
vt 0.083333 0.733333
vt 0.003219 0.766667
vt 0.083333 0.766667
vt 0.003415 0.800000
vt 0.003219 0.766667
vt 0.083333 0.800000
vt 0.003569 0.833333
vt 0.083333 0.833333
vt 0.003629 0.866667
vt 0.003569 0.833333
vt 0.083333 0.866667
vt 0.003685 0.900000
vt 0.003629 0.866667
vt 0.083333 0.900000
vt 0.003766 0.933333
vt 0.003685 0.900000
vt 0.083333 0.933333
vt 0.166667 0.966667
vt 0.166667 1.000000
vt 0.166667 0.000000
vt 0.166667 0.033333
vt 0.166667 0.066667
vt 0.166667 0.073219
vt 0.166667 0.326781
vt 0.166667 0.366667
vt 0.166667 0.400000
vt 0.166667 0.433333
vt 0.166667 0.466667
vt 0.166667 0.533333
vt 0.166667 0.566667
vt 0.166667 0.600000
vt 0.166667 0.633333
vt 0.166667 0.666667
vt 0.166667 0.700000
vt 0.166667 0.733333
vt 0.166667 0.766667
vt 0.166667 0.800000
vt 0.166667 0.833333
vt 0.166667 0.866667
vt 0.166667 0.900000
vt 0.166667 0.933333
vt 0.250000 0.966667
vt 0.250000 1.000000
vt 0.250000 0.000000
vt 0.250000 0.033333
vt 0.250000 0.066667
vt 0.250000 0.072050
vt 0.250000 0.327950
vt 0.250000 0.366667
vt 0.250000 0.400000
vt 0.250000 0.433333
vt 0.250000 0.466667
vt 0.250000 0.533333
vt 0.250000 0.566667
vt 0.250000 0.600000
vt 0.250000 0.633333
vt 0.250000 0.666667
vt 0.250000 0.700000
vt 0.250000 0.733333
vt 0.250000 0.766667
vt 0.250000 0.800000
vt 0.250000 0.833333
vt 0.250000 0.866667
vt 0.250000 0.900000
vt 0.250000 0.933333
vt 0.333333 0.966667
vt 0.333333 1.000000
vt 0.333333 0.000000
vt 0.333333 0.033333
vt 0.333333 0.066667
vt 0.333333 0.073218
vt 0.333333 0.326781
vt 0.333333 0.366667
vt 0.333333 0.400000
vt 0.333333 0.433333
vt 0.333333 0.466667
vt 0.333333 0.533333
vt 0.333333 0.566667
vt 0.333333 0.600000
vt 0.333333 0.633333
vt 0.333333 0.666667
vt 0.333333 0.700000
vt 0.333333 0.733333
vt 0.333333 0.766667
vt 0.333333 0.800000
vt 0.333333 0.833333
vt 0.333333 0.866667
vt 0.333333 0.900000
vt 0.333333 0.933333
vt 0.416667 0.966667
vt 0.416667 1.000000
vt 0.416667 0.000000
vt 0.416667 0.033333
vt 0.416667 0.066667
vt 0.416667 0.073219
vt 0.416667 0.326782
vt 0.416667 0.366667
vt 0.416667 0.400000
vt 0.416667 0.433333
vt 0.416667 0.466667
vt 0.416667 0.533333
vt 0.416667 0.566667
vt 0.416667 0.600000
vt 0.416667 0.633333
vt 0.416667 0.666667
vt 0.416667 0.700000
vt 0.416667 0.733333
vt 0.416667 0.766667
vt 0.416667 0.800000
vt 0.416667 0.833333
vt 0.416667 0.866667
vt 0.416667 0.900000
vt 0.416667 0.933333
vt 0.500000 0.966667
vt 0.500000 1.000000
vt 0.500000 0.000000
vt 0.500000 0.033333
vt 0.500000 0.066667
vt 0.500000 0.073219
vt 0.500000 0.326782
vt 0.500000 0.366667
vt 0.500000 0.400000
vt 0.500000 0.433333
vt 0.500000 0.466667
vt 0.500000 0.533333
vt 0.500000 0.566667
vt 0.500000 0.600000
vt 0.500000 0.633333
vt 0.500000 0.666667
vt 0.500000 0.700000
vt 0.500000 0.733333
vt 0.500000 0.766667
vt 0.500000 0.800000
vt 0.500000 0.833333
vt 0.500000 0.866667
vt 0.500000 0.900000
vt 0.500000 0.933333
vt 0.583333 0.966667
vt 0.583333 1.000000
vt 0.583333 0.000000
vt 0.583333 0.033333
vt 0.583333 0.066667
vt 0.583333 0.073219
vt 0.583333 0.326782
vt 0.583333 0.366667
vt 0.583333 0.400000
vt 0.583333 0.433333
vt 0.583333 0.466667
vt 0.583333 0.533333
vt 0.583333 0.566667
vt 0.583333 0.600000
vt 0.583333 0.633333
vt 0.583333 0.666667
vt 0.583333 0.700000
vt 0.583333 0.733333
vt 0.583333 0.766667
vt 0.583333 0.800000
vt 0.583333 0.833333
vt 0.583333 0.866667
vt 0.583333 0.900000
vt 0.583333 0.933333
vt 0.666667 0.966667
vt 0.666667 1.000000
vt 0.666667 0.000000
vt 0.666667 0.033333
vt 0.666667 0.066667
vt 0.666667 0.073219
vt 0.666667 0.326781
vt 0.666667 0.366667
vt 0.666667 0.400000
vt 0.666667 0.433333
vt 0.666667 0.466667
vt 0.666667 0.533333
vt 0.666667 0.566667
vt 0.666667 0.600000
vt 0.666667 0.633333
vt 0.666667 0.666667
vt 0.666667 0.700000
vt 0.666667 0.733333
vt 0.666667 0.766667
vt 0.666667 0.800000
vt 0.666667 0.833333
vt 0.666667 0.866667
vt 0.666667 0.900000
vt 0.666667 0.933333
vt 0.750000 0.966667
vt 0.750000 1.000000
vt 0.750000 0.000000
vt 0.750000 0.033333
vt 0.750000 0.066667
vt 0.750000 0.073219
vt 0.750000 0.326782
vt 0.750000 0.366667
vt 0.750000 0.400000
vt 0.750000 0.433333
vt 0.750000 0.466667
vt 0.750000 0.533333
vt 0.750000 0.566667
vt 0.750000 0.600000
vt 0.750000 0.633333
vt 0.750000 0.666667
vt 0.750000 0.700000
vt 0.750000 0.733333
vt 0.750000 0.766667
vt 0.750000 0.800000
vt 0.750000 0.833333
vt 0.750000 0.866667
vt 0.750000 0.900000
vt 0.750000 0.933333
vt 0.833333 0.966667
vt 0.833333 0.000000
vt 0.833333 0.033333
vt 0.833333 0.066667
vt 0.833333 0.073219
vt 0.833333 0.326782
vt 0.833333 0.366667
vt 0.833333 0.400000
vt 0.833333 0.433333
vt 0.833333 0.466667
vt 0.833333 0.533333
vt 0.833333 0.566667
vt 0.833333 0.600000
vt 0.833333 0.633333
vt 0.833333 0.666667
vt 0.833333 0.700000
vt 0.833333 0.733333
vt 0.833333 0.766667
vt 0.833333 0.800000
vt 0.833333 0.833333
vt 0.833333 0.866667
vt 0.833333 0.900000
vt 0.833333 0.933333
vt 0.916667 0.966667
vt 0.916667 0.000000
vt 0.916667 0.033333
vt 0.916667 0.066667
vt 0.916667 0.073219
vt 0.916667 0.326781
vt 0.916667 0.366667
vt 0.916667 0.400000
vt 0.916667 0.433333
vt 0.916667 0.466667
vt 0.916667 0.533333
vt 0.916667 0.566667
vt 0.916667 0.600000
vt 0.916667 0.633333
vt 0.916667 0.666667
vt 0.916667 0.700000
vt 0.916667 0.733333
vt 0.916667 0.766667
vt 0.916667 0.800000
vt 0.916667 0.833333
vt 0.916667 0.866667
vt 0.916667 0.900000
vt 0.916667 0.933333
vt 0.997349 1.000000
vt 0.997319 0.966667
vt 0.997349 0.000000
vt 0.997350 0.033333
vt 0.997297 0.066667
vt 0.960469 0.100000
vt 0.959846 0.099523
vt 0.956463 0.095967
vt 0.953376 0.091272
vt 0.946756 0.078712
vt 0.943567 0.074826
vt 0.939998 0.073216
vt 0.997185 0.100000
vt 0.997045 0.133333
vt 0.991024 0.133333
vt 0.989031 0.128811
vt 0.996889 0.166667
vt 0.992474 0.166667
vt 0.992501 0.148528
vt 0.991506 0.135062
vt 0.996731 0.200000
vt 0.992431 0.200000
vt 0.996580 0.233333
vt 0.992390 0.233333
vt 0.996446 0.266667
vt 0.991005 0.266667
vt 0.991431 0.264936
vt 0.992370 0.251470
vt 0.996337 0.300000
vt 0.964523 0.300000
vt 0.989230 0.271186
vt 0.961169 0.304031
vt 0.963995 0.300477
vt 0.996255 0.333333
vt 0.947919 0.326780
vt 0.950869 0.325169
vt 0.953422 0.321281
vt 0.958650 0.308723
vt 0.996219 0.366667
vt 0.996220 0.400000
vt 0.996240 0.433333
vt 0.996323 0.466667
vt 0.996353 0.500000
vt 0.996374 0.533333
vt 0.996397 0.566667
vt 0.996458 0.600000
vt 0.996539 0.633333
vt 0.996637 0.666667
vt 0.996745 0.700000
vt 0.996858 0.733333
vt 0.996967 0.766667
vt 0.997063 0.800000
vt 0.997139 0.833333
vt 0.997169 0.866667
vt 0.997197 0.900000
vt 0.997237 0.933333
s 0
usemtl Material
f 2/1/1 8/2/1 11/3/1 21/4/1
f 4/5/2 12/6/2 11/3/2 8/2/2
f 6/7/3 14/8/3 11/9/3 12/10/3
f 7/11/4 21/12/4 11/9/4 14/8/4
f 22/13/5 40/14/5 44/15/5 53/16/5
f 28/17/6 48/18/6 44/15/6 40/14/6
f 32/19/7 50/20/7 44/15/7 48/18/7
f 34/21/8 53/16/8 44/15/8 50/20/8
f 56/22/9 66/23/9 67/24/9 79/25/9
f 60/26/10 74/27/10 67/24/10 66/23/10
f 62/28/11 76/29/11 67/24/11 74/27/11
f 64/30/12 79/25/12 67/24/12 76/29/12
f 85/31/13 102/32/13 106/33/13 114/34/13
f 87/35/14 110/36/14 106/33/14 102/32/14
f 93/37/15 111/38/15 106/33/15 110/36/15
f 98/39/16 114/34/16 106/33/16 111/38/16
f 116/40/17 130/41/17 135/42/17 153/43/17
f 119/44/18 139/45/18 135/42/18 130/41/18
f 122/46/19 142/47/19 135/42/19 139/45/19
f 126/48/20 153/43/20 135/42/20 142/47/20
f 162/49/21 174/50/21 178/51/21 187/52/21
f 167/53/22 182/54/22 178/51/22 174/50/22
f 169/55/23 186/56/23 178/51/23 182/54/23
f 170/57/24 187/52/24 178/51/24 186/56/24
f 247/58/25 261/14/25 262/59/25 273/60/25
f 248/61/26 266/62/26 262/59/26 261/14/26
f 250/63/27 272/14/27 262/59/27 266/62/27
f 256/64/28 273/60/28 262/59/28 272/14/28
f 275/65/29 279/66/29 281/67/29 288/4/29
f 276/68/30 283/4/30 281/67/30 279/66/30
f 277/69/31 286/70/31 281/71/31 283/12/31
f 278/72/32 288/12/32 281/71/32 286/70/32
f 290/73/33 298/23/33 300/23/33 307/74/33
f 292/75/34 302/76/34 300/23/34 298/23/34
f 293/77/35 304/23/35 300/23/35 302/76/35
f 295/78/36 307/74/36 300/23/36 304/23/36
f 310/79/37 325/32/37 328/32/37 331/80/37
f 314/81/38 329/82/38 328/32/38 325/32/38
f 320/83/39 330/32/39 328/32/39 329/82/39
f 324/84/40 331/80/40 328/32/40 330/32/40
f 332/85/41 341/41/41 342/41/41 348/86/41
f 335/87/42 344/88/42 342/41/42 341/41/42
f 336/89/43 347/41/43 342/41/43 344/88/43
f 338/90/44 348/86/44 342/41/44 347/41/44
f 351/91/45 359/92/45 362/50/45 373/93/45
f 353/94/46 364/95/46 362/50/46 359/92/46
f 355/96/47 368/92/47 362/50/47 364/95/47
f 357/97/48 373/93/48 362/50/48 368/92/48
f 377/98/49 383/99/49 384/100/49 387/59/49
f 380/101/50 385/102/50 384/103/50 383/104/50
f 382/105/51 387/59/51 384/100/51 385/106/51
f 389/107/52 395/4/52 398/4/52 402/108/52
f 392/109/53 400/110/53 398/111/53 395/12/53
f 394/112/54 402/113/54 398/114/54 400/115/54
f 403/116/55 409/117/55 411/118/55 417/23/55
f 405/119/56 414/120/56 411/121/56 409/122/56
f 407/123/57 417/23/57 411/118/57 414/124/57
f 419/125/58 431/126/58 433/127/58 437/32/58
f 423/128/59 435/129/59 433/130/59 431/131/59
f 427/132/60 437/32/60 433/127/60 435/133/60
f 439/134/61 445/135/61 446/136/61 451/41/61
f 440/137/62 449/138/62 446/139/62 445/140/62
f 443/141/63 451/41/63 446/136/63 449/142/63
f 453/143/64 458/144/64 461/145/64 465/50/64
f 454/146/65 463/147/65 461/148/65 458/149/65
f 456/150/66 465/50/66 461/145/66 463/151/66
f 34/21/67 4/5/67 8/2/67 53/16/67
f 53/16/68 8/2/68 2/1/68 22/13/68
f 211/152/69 6/7/69 12/10/69 223/153/69
f 223/154/70 12/6/70 4/5/70 221/155/70
f 468/156/71 466/157/71 481/158/71 79/25/71 64/30/71 32/19/71 48/18/71 484/159/71 477/160/71 473/161/71
f 487/162/72 489/163/72 56/22/72 79/25/72 481/158/72
f 492/164/72 484/159/72 48/18/72 28/17/72 485/165/72
f 720/166/73 62/28/73 74/27/73 722/167/73
f 114/34/73 98/39/73 719/168/73 721/169/73
f 721/169/73 719/168/73 720/166/73 722/167/73
f 85/31/74 114/34/74 721/169/74 723/170/74 725/171/74
f 724/172/74 722/167/74 74/27/74 60/26/74 726/173/74
f 723/170/74 721/169/74 722/167/74 724/172/74 726/173/74 725/171/74
f 728/174/75 93/37/75 110/36/75 730/175/75
f 153/43/75 126/48/75 727/176/75 729/177/75
f 727/176/75 728/174/75 730/175/75 729/177/75
f 116/40/76 153/43/76 729/177/76 731/178/76 733/179/76
f 732/180/76 730/175/76 110/36/76 87/35/76 734/181/76
f 731/178/76 729/177/76 730/175/76 732/180/76 734/181/76 733/179/76
f 496/182/77 500/183/77 187/52/77 170/57/77 122/46/77 139/45/77 497/184/77 493/185/77
f 501/186/78 507/187/78 162/49/78 187/52/78 500/183/78
f 504/188/78 497/184/78 139/45/78 119/44/78 506/189/78
f 6/7/79 169/55/79 182/54/79 14/8/79
f 14/8/80 182/54/80 167/53/80 7/11/80
f 32/19/81 195/190/81 205/191/81 50/20/81
f 50/20/82 205/191/82 191/192/82 34/21/82
f 169/55/83 225/193/83 226/194/83 186/56/83
f 186/56/84 226/194/84 224/195/84 170/57/84
f 122/46/85 231/196/85 232/197/85 142/47/85
f 142/47/86 232/197/86 229/198/86 126/48/86
f 93/37/87 236/199/87 238/200/87 111/38/87
f 111/38/88 238/200/88 235/201/88 98/39/88
f 62/28/89 243/202/89 244/203/89 76/29/89
f 76/29/90 244/203/90 241/204/90 64/30/90
f 256/64/91 276/68/91 279/66/91 273/60/91
f 273/60/92 279/66/92 275/65/92 247/58/92
f 511/205/93 509/206/93 250/63/93 266/62/93 513/207/93
f 519/208/93 516/209/93 307/74/93 295/78/93 517/210/93
f 521/211/94 290/73/94 307/74/94 516/209/94
f 513/207/94 266/62/94 248/61/94 524/212/94
f 302/76/95 736/213/95 735/214/95 293/77/95
f 736/213/95 620/215/95 616/216/95 735/214/95
f 738/217/95 331/80/95 324/84/95 737/218/95
f 737/218/95 614/219/95 618/220/95 738/217/95
f 739/221/96 310/79/96 331/80/96 738/217/96
f 738/217/96 618/220/96 622/222/96 739/221/96
f 292/75/96 740/223/96 736/213/96 302/76/96
f 740/223/96 624/224/96 620/215/96 736/213/96
f 320/83/97 329/82/97 742/225/97 741/226/97
f 742/225/97 632/227/97 629/228/97 741/226/97
f 348/86/97 338/90/97 743/229/97 744/230/97
f 743/229/97 626/231/97 630/232/97 744/230/97
f 329/82/98 314/81/98 745/233/98 742/225/98
f 745/233/98 636/234/98 632/227/98 742/225/98
f 332/85/98 348/86/98 744/230/98 746/235/98
f 744/230/98 630/232/98 634/236/98 746/235/98
f 531/237/99 526/238/99 373/93/99 357/97/99 536/239/99
f 542/240/99 538/241/99 336/89/99 344/88/99 540/242/99
f 545/243/100 351/91/100 373/93/100 526/238/100
f 540/242/100 344/88/100 335/87/100 546/244/100
f 277/69/101 355/96/101 364/95/101 286/70/101
f 286/70/102 364/95/102 353/94/102 278/72/102
f 162/49/103 357/97/103 368/92/103 174/50/103
f 174/50/104 368/92/104 355/96/104 167/53/104
f 276/68/105 2/1/105 21/4/105 283/4/105
f 283/12/106 21/12/106 7/11/106 277/69/106
f 85/31/107 324/84/107 330/32/107 102/32/107
f 102/32/108 330/32/108 320/83/108 87/35/108
f 336/89/109 119/44/109 130/41/109 347/41/109
f 347/41/110 130/41/110 116/40/110 338/90/110
f 22/13/111 256/64/111 272/14/111 40/14/111
f 40/14/112 272/14/112 250/63/112 28/17/112
f 293/77/113 60/26/113 66/23/113 304/23/113
f 304/23/114 66/23/114 56/22/114 295/78/114
f 377/98/115 389/107/115 402/108/115 383/99/115
f 383/104/116 402/113/116 394/112/116 380/101/116
f 548/245/117 382/105/117 385/106/117 551/246/117
f 553/247/117 409/117/117 403/116/117 555/248/117
f 551/249/118 385/102/118 380/101/118 556/250/118
f 558/251/118 405/119/118 409/122/118 553/252/118
f 748/253/119 431/126/119 419/125/119 747/254/119
f 747/254/119 638/255/119 642/256/119 748/253/119
f 749/257/119 407/123/119 414/124/119 750/258/119
f 750/258/119 644/259/119 640/260/119 749/257/119
f 751/261/120 423/128/120 431/131/120 748/262/120
f 748/262/120 642/263/120 646/264/120 751/261/120
f 750/265/120 414/120/120 405/119/120 752/266/120
f 752/266/120 649/267/120 644/268/120 750/265/120
f 427/132/121 435/133/121 754/269/121 753/270/121
f 754/269/121 655/271/121 653/272/121 753/270/121
f 445/135/121 439/134/121 755/273/121 756/274/121
f 755/273/121 651/275/121 656/276/121 756/274/121
f 435/129/122 423/128/122 757/277/122 754/278/122
f 757/277/122 658/279/122 655/280/122 754/278/122
f 440/137/122 445/140/122 756/281/122 758/282/122
f 756/281/122 656/283/122 660/284/122 758/282/122
f 561/285/123 458/144/123 453/143/123 562/286/123
f 565/287/123 443/141/123 449/142/123 567/288/123
f 569/289/124 454/146/124 458/149/124 561/290/124
f 567/291/124 449/138/124 440/137/124 571/292/124
f 392/109/125 456/150/125 463/151/125 400/110/125
f 400/115/126 463/147/126 454/146/126 394/112/126
f 332/85/127 439/134/127 451/41/127 341/41/127
f 341/41/128 451/41/128 443/141/128 335/87/128
f 456/150/129 353/94/129 359/92/129 465/50/129
f 465/50/130 359/92/130 351/91/130 453/143/130
f 290/73/131 403/116/131 417/23/131 298/23/131
f 298/23/132 417/23/132 407/123/132 292/75/132
f 427/132/133 314/81/133 325/32/133 437/32/133
f 437/32/134 325/32/134 310/79/134 419/125/134
f 278/72/135 392/109/135 395/12/135 288/12/135
f 288/4/136 395/4/136 389/107/136 275/65/136
f 382/105/137 248/61/137 261/14/137 387/59/137
f 387/59/138 261/14/138 247/58/138 377/98/138
f 22/13/139 2/1/139 276/68/139 256/64/139
f 191/192/140 221/155/140 4/5/140 34/21/140
f 211/152/141 225/193/141 169/55/141 6/7/141
f 7/11/142 167/53/142 355/96/142 277/69/142
f 241/204/143 195/190/143 32/19/143 64/30/143
f 517/210/144 295/78/144 56/22/144 489/163/144
f 485/165/144 28/17/144 250/63/144 509/206/144
f 98/39/145 235/201/145 243/202/145 62/28/145 720/166/145 761/293/145 760/294/145 759/295/145 719/168/145
f 761/293/145 720/166/145 719/168/145 759/295/145 760/294/145
f 737/218/146 324/84/146 85/31/146 725/171/146 762/296/146
f 726/173/146 60/26/146 293/77/146 735/214/146 763/297/146
f 763/297/146 735/214/146 616/216/146 671/298/146 667/299/146 663/300/146 664/301/146 669/302/146 614/219/146 737/218/146 762/296/146 725/171/146 726/173/146
f 126/48/147 229/198/147 236/199/147 93/37/147 728/174/147 766/303/147 765/304/147 764/305/147 727/176/147
f 766/303/147 728/174/147 727/176/147 764/305/147 765/304/147
f 338/90/148 116/40/148 733/179/148 767/306/148 743/229/148
f 87/35/148 320/83/148 741/226/148 768/307/148 734/181/148
f 768/307/148 741/226/148 629/228/148 681/308/148 677/309/148 673/310/148 675/311/148 679/312/148 626/231/148 743/229/148 767/306/148 733/179/148 734/181/148
f 224/195/149 231/196/149 122/46/149 170/57/149
f 536/239/150 357/97/150 162/49/150 507/187/150
f 506/189/150 119/44/150 336/89/150 538/241/150
f 247/58/151 275/65/151 389/107/151 377/98/151
f 555/248/152 403/116/152 290/73/152 521/211/152
f 524/212/152 248/61/152 382/105/152 548/245/152
f 278/72/153 353/94/153 456/150/153 392/109/153
f 419/125/154 310/79/154 739/221/154 747/254/154
f 683/313/154 638/255/154 747/254/154 739/221/154 622/222/154
f 740/223/154 292/75/154 407/123/154 749/257/154
f 640/260/154 685/314/154 624/224/154 740/223/154 749/257/154
f 745/233/155 314/81/155 427/132/155 753/270/155
f 653/272/155 689/315/155 636/234/155 745/233/155 753/270/155
f 439/134/155 332/85/155 746/235/155 755/273/155
f 686/316/155 651/275/155 755/273/155 746/235/155 634/236/155
f 562/286/156 453/143/156 351/91/156 545/243/156
f 546/244/156 335/87/156 443/141/156 565/287/156
f 556/250/157 380/101/157 394/112/157 454/146/157 569/289/157
f 778/317/157 771/318/157 770/319/157 757/277/157 423/128/157 751/261/157 772/320/157 773/321/157 779/322/157 777/323/157 776/324/157 775/325/157 769/326/157 774/327/157
f 751/261/157 646/264/157 711/328/157 707/329/157 706/330/157 708/331/157 705/332/157 703/333/157 698/334/157 700/335/157 696/336/157 704/337/157 693/338/157 658/279/157 757/277/157 770/319/157 771/318/157 778/317/157 774/327/157 769/326/157 775/325/157 776/324/157 777/323/157 779/322/157 773/321/157 772/320/157
f 752/266/157 405/119/157 558/251/157 571/292/157 440/137/157 758/282/157 780/339/157 783/340/157 785/341/157 786/342/157 790/343/157 787/344/157 788/345/157 789/346/157 784/347/157 782/348/157 781/349/157
f 758/282/157 660/284/157 691/350/157 694/351/157 713/352/157 715/353/157 714/354/157 718/355/157 716/356/157 717/357/157 712/358/157 710/359/157 709/360/157 649/267/157 752/266/157 781/349/157 782/348/157 784/347/157 789/346/157 788/345/157 787/344/157 790/343/157 786/342/157 785/341/157 783/340/157 780/339/157
s 1
f 653/497/191 655/498/191 658/499/191 693/500/192 140/501/193 689/502/194
f 636/503/195 689/502/194 140/501/193 147/504/196 681/505/197 629/506/195 632/507/195
f 681/508/197 147/504/196 151/509/198 677/510/199
f 677/510/199 151/509/198 154/511/200 673/512/201
f 673/512/201 154/511/200 159/513/202 675/514/203
f 675/514/203 159/513/202 161/515/204 679/516/205
f 166/517/206 686/518/207 634/519/208 630/520/208 626/521/208 679/522/205 161/515/204
f 656/523/209 651/524/209 686/518/207 166/517/206 691/525/210 660/526/209
f 197/527/211 140/501/193 693/500/192 704/528/212
f 199/529/213 147/504/196 140/501/193 197/527/211
f 203/530/214 151/509/198 147/504/196 199/529/213
f 209/531/215 154/511/200 151/509/198 203/530/214
f 214/532/216 159/513/202 154/511/200 209/531/215
f 217/533/217 161/515/204 159/513/202 214/532/216
f 220/534/218 166/517/206 161/515/204 217/533/217
f 691/525/210 166/517/206 220/534/218 694/535/219
f 696/536/220 253/537/221 197/527/211 704/528/212
f 255/538/222 199/529/213 197/527/211 253/537/221
f 259/539/223 203/530/214 199/529/213 255/538/222
f 265/540/224 209/531/215 203/530/214 259/539/223
f 268/541/225 214/532/216 209/531/215 265/540/224
f 271/542/226 217/533/217 214/532/216 268/541/225
f 274/543/227 220/534/218 217/533/217 271/542/226
f 220/534/218 274/543/227 713/544/228 694/535/219
f 305/545/229 253/537/221 696/536/220 700/546/230
f 312/547/231 255/538/222 253/537/221 305/545/229
f 315/548/232 259/539/223 255/538/222 312/547/231
f 317/549/233 265/540/224 259/539/223 315/548/232
f 321/550/234 268/541/225 265/540/224 317/549/233
f 271/542/226 268/541/225 321/550/234 326/551/235
f 274/543/227 271/542/226 326/551/235 327/552/236
f 274/543/227 327/552/236 715/553/237 713/544/228
f 360/554/238 305/545/229 700/546/230 698/555/239
f 366/556/240 312/547/231 305/545/229 360/554/238
f 315/548/232 312/547/231 366/556/240 370/557/241
f 317/549/233 315/548/232 370/557/241 374/558/242
f 321/550/234 317/549/233 374/558/242 378/559/243
f 326/551/235 321/550/234 378/559/243 379/560/244
f 327/552/236 326/551/235 379/560/244 381/561/245
f 327/552/236 381/561/245 714/562/246 715/553/237
f 415/563/247 360/554/238 698/555/239 703/564/248
f 366/556/240 360/554/238 415/563/247 421/565/249
f 370/557/241 366/556/240 421/565/249 425/566/250
f 374/558/242 370/557/241 425/566/250 430/567/251
f 378/559/243 374/558/242 430/567/251 432/568/252
f 379/560/244 378/559/243 432/568/252 434/569/253
f 381/561/245 379/560/244 434/569/253 436/570/254
f 381/561/245 436/570/254 718/571/255 714/562/246
f 471/572/256 415/563/247 703/564/248 705/573/257
f 421/565/249 415/563/247 471/572/256 475/574/258
f 425/566/250 421/565/249 475/574/258 479/575/259
f 430/567/251 425/566/250 479/575/259 483/576/260
f 432/568/252 430/567/251 483/576/260 486/577/261
f 434/569/253 432/568/252 486/577/261 488/578/262
f 436/570/254 434/569/253 488/578/262 490/579/263
f 718/571/255 436/570/254 490/579/263 716/580/264
f 528/581/265 471/572/256 705/573/257 708/582/266
f 475/574/258 471/572/256 528/581/265 529/583/267
f 479/575/259 475/574/258 529/583/267 534/584/268
f 483/576/260 479/575/259 534/584/268 537/585/269
f 486/577/261 483/576/260 537/585/269 539/586/270
f 488/578/262 486/577/261 539/586/270 541/587/271
f 490/579/263 488/578/262 541/587/271 543/588/272
f 716/580/264 490/579/263 543/588/272 717/589/273
f 572/590/274 528/581/265 708/582/266 706/591/275
f 529/583/267 528/581/265 572/590/274 575/592/276
f 534/584/268 529/583/267 575/592/276 577/593/277
f 537/585/269 534/584/268 577/593/277 579/594/278
f 539/586/270 537/585/269 579/594/278 581/595/279
f 541/587/271 539/586/270 581/595/279 583/596/280
f 543/588/272 541/587/271 583/596/280 585/597/281
f 717/589/273 543/588/272 585/597/281 712/598/282
f 707/599/283 586/600/284 572/590/274 706/591/275
f 575/592/276 572/590/274 586/600/284 589/601/285
f 577/593/277 575/592/276 589/601/285 590/602/286
f 579/594/278 577/593/277 590/602/286 592/603/287
f 581/595/279 579/594/278 592/603/287 594/604/288
f 583/596/280 581/595/279 594/604/288 596/605/289
f 585/597/281 583/596/280 596/605/289 598/606/290
f 712/598/282 585/597/281 598/606/290 710/607/291
f 711/608/292 600/609/293 586/600/284 707/599/283
f 589/601/285 586/600/284 600/609/293 602/610/294
f 590/602/286 589/601/285 602/610/294 604/611/295
f 592/603/287 590/602/286 604/611/295 606/612/296
f 594/604/288 592/603/287 606/612/296 609/613/297
f 596/605/289 594/604/288 609/613/297 610/614/298
f 598/606/290 596/605/289 610/614/298 613/615/299
f 710/607/291 598/606/290 613/615/299 709/616/300
f 642/617/301 638/618/301 683/619/302 600/609/293 711/608/292 646/620/301
f 602/610/294 600/609/293 683/619/302 622/621/303 618/622/303 614/623/303 669/624/304
f 604/611/295 602/610/294 669/624/304 664/625/305
f 606/612/296 604/611/295 664/625/305 663/626/306
f 609/613/297 606/612/296 663/626/306 667/627/307
f 610/614/298 609/613/297 667/627/307 671/628/308
f 613/615/299 610/614/298 671/628/308 616/629/309 620/630/309 624/631/309 685/632/310
f 640/633/311 644/634/311 649/635/311 709/616/300 613/615/299 685/632/310
s 0
usemtl 
f 466/361/158 10/362/158 487/363/158 481/364/158
f 504/365/158 9/366/158 493/367/158 497/368/158
f 489/369/159 487/363/159 10/362/159 16/370/159 519/371/159 517/372/159
f 538/373/159 542/374/159 13/375/159 9/366/159 504/365/159 506/376/159
f 555/377/160 521/378/160 516/379/160 519/371/160 16/370/160 25/380/160 18/381/160 13/375/160 542/374/160 540/382/160 546/383/160 565/384/160 567/385/160 571/386/160 558/387/160 553/388/160
f 562/389/161 545/390/161 526/391/161 531/392/161 36/393/161 27/394/161 30/395/161 38/396/161 511/397/161 513/398/161 524/399/161 548/400/161 551/401/161 556/402/161 569/403/161 561/404/161
f 507/405/162 501/406/162 42/407/162 36/393/162 531/392/162 536/408/162
f 509/409/162 511/397/162 38/396/162 47/410/162 492/411/162 485/412/162
f 496/413/163 42/407/163 501/406/163 500/414/163
f 492/411/163 47/410/163 477/415/163 484/416/163
f 92/417/164 82/418/164 63/419/164 83/420/164
f 90/421/165 77/422/165 82/418/165 92/417/165
f 99/423/166 70/424/166 77/422/166 90/421/166
f 72/425/167 70/424/167 99/423/167 96/426/167
f 103/427/168 58/428/168 54/429/168 108/430/168
f 113/431/169 65/432/169 58/428/169 103/427/169
f 115/433/170 61/434/170 65/432/170 113/431/170
f 83/435/171 63/436/171 61/434/171 115/433/171
f 118/437/172 128/438/172 133/439/172 120/440/172
f 120/441/173 133/442/173 124/443/173 117/444/173
f 136/445/174 157/446/174 168/447/174 148/448/174
f 148/449/175 168/450/175 165/451/175 144/452/175
f 172/453/176 201/454/176 207/455/176 175/456/176
f 175/456/177 207/457/177 194/458/177 171/459/177
f 179/460/178 216/461/178 222/462/178 189/463/178
f 189/463/179 222/464/179 219/465/179 183/466/179
f 172/453/180 175/456/180 171/467/180 124/468/180 133/439/180 128/438/180 25/380/180 16/370/180 10/362/180 466/361/180 468/469/180 473/470/180 477/415/180 47/410/180 38/396/180 30/395/180 165/451/180 168/471/180 157/472/180 179/473/180 189/474/180 183/466/180 54/429/180 58/428/180 65/432/180 61/434/180 63/475/180 82/418/180 77/422/180 70/424/180 72/425/180
f 201/476/181 118/477/181 120/441/181 207/457/181
f 207/457/182 120/441/182 117/444/182 194/458/182
f 216/461/183 136/445/183 148/448/183 222/462/183
f 222/462/184 148/448/184 144/478/184 219/479/184
f 118/477/149 201/476/149 96/480/149 99/481/149 90/482/149 92/483/149 83/484/149 115/485/149 113/486/149 103/487/149 108/488/149 219/479/149 144/478/149 27/489/149 36/490/149 42/491/149 496/492/149 493/493/149 9/494/149 13/495/149 18/496/149
f 18/381/185 25/380/185 128/438/185 118/437/185
f 117/444/186 124/468/186 171/459/186 194/458/186
f 144/452/187 165/451/187 30/395/187 27/394/187
f 136/445/188 216/461/188 179/460/188 157/446/188
f 172/453/189 72/425/189 96/426/189 201/454/189
f 108/430/190 54/429/190 183/466/190 219/465/190
s 1
f 584/636/312 587/637/313 52/638/314 1/639/315
f 588/640/316 584/641/312 1/642/315 3/643/317
f 591/644/318 588/640/316 3/643/317 5/645/319
f 741/646/320 768/647/321 593/648/322 591/644/318 5/645/319 770/649/323 757/650/320 754/651/320 753/652/320 745/653/320 742/654/320
f 732/655/324 595/656/325 593/657/322 768/647/321 734/658/326
f 766/659/327 597/660/328 595/656/325 732/661/324 730/662/329 728/663/329
f 765/664/330 599/665/331 597/666/328 766/667/327
f 764/668/332 601/669/333 599/665/331 765/670/330
f 731/671/334 603/672/335 601/669/333 764/668/332 727/673/336 729/674/336
f 767/675/337 605/676/338 603/677/335 731/678/334 733/679/339
f 767/680/337 743/681/340 744/682/340 746/683/340 755/684/340 756/685/340 758/686/340 780/687/341 15/501/342 607/688/343 605/689/338
f 608/690/344 607/691/343 15/501/342 17/692/345
f 611/693/346 608/694/344 17/692/345 19/695/347
f 612/696/348 611/697/346 19/695/347 20/698/349
f 615/699/350 612/700/348 20/698/349 23/701/351
f 617/702/352 615/703/350 23/701/351 24/513/353
f 619/704/354 617/705/352 24/513/353 26/706/355
f 621/707/356 619/708/354 26/706/355 29/709/357
f 623/710/358 621/707/356 29/709/357 31/711/359
f 625/712/360 623/713/358 31/711/359 33/714/361
f 627/715/362 625/712/360 33/714/361 35/716/363
f 628/717/364 627/718/362 35/716/363 37/719/365
f 631/720/366 628/721/364 37/719/365 39/722/367
f 633/723/368 631/720/366 39/722/367 41/724/369
f 635/725/370 633/726/368 41/724/369 43/727/371
f 637/728/372 635/725/370 43/727/371 45/729/373
f 639/730/374 637/731/372 45/729/373 46/732/375
f 641/733/376 639/734/374 46/732/375 49/735/377
f 643/736/378 641/737/376 49/735/377 51/738/379
f 587/637/313 643/736/378 51/738/379 52/638/314
f 52/638/314 105/739/380 55/740/381 1/639/315
f 1/642/315 55/741/381 57/742/382 3/643/317
f 3/643/317 57/742/382 59/743/383 5/645/319
f 5/645/319 59/743/383 771/744/384 770/649/323
f 783/745/385 68/527/386 15/501/342 780/687/341
f 15/501/342 68/527/386 69/746/387 17/692/345
f 17/692/345 69/746/387 71/747/388 19/695/347
f 19/695/347 71/747/388 73/748/389 20/698/349
f 20/698/349 73/748/389 75/749/390 23/701/351
f 23/701/351 75/749/390 78/532/391 24/513/353
f 24/513/353 78/532/391 80/750/392 26/706/355
f 26/706/355 80/750/392 81/751/393 29/709/357
f 29/709/357 81/751/393 84/752/394 31/711/359
f 31/711/359 84/752/394 86/753/395 33/714/361
f 33/714/361 86/753/395 88/754/396 35/716/363
f 35/716/363 88/754/396 89/755/397 37/719/365
f 37/719/365 89/755/397 91/756/398 39/722/367
f 39/722/367 91/756/398 94/757/399 41/724/369
f 41/724/369 94/757/399 95/758/400 43/727/371
f 43/727/371 95/758/400 97/759/401 45/729/373
f 45/729/373 97/759/401 100/760/402 46/732/375
f 46/732/375 100/760/402 101/761/403 49/735/377
f 49/735/377 101/761/403 104/762/404 51/738/379
f 51/738/379 104/762/404 105/739/380 52/638/314
f 105/739/380 158/763/405 107/764/406 55/740/381
f 55/741/381 107/765/406 109/766/407 57/742/382
f 57/742/382 109/766/407 112/767/408 59/743/383
f 59/743/383 112/767/408 778/768/409 771/744/384
f 785/769/410 121/537/411 68/527/386 783/745/385
f 68/527/386 121/537/411 123/770/412 69/746/387
f 69/746/387 123/770/412 125/771/413 71/747/388
f 71/747/388 125/771/413 127/772/414 73/748/389
f 73/748/389 127/772/414 129/773/415 75/749/390
f 75/749/390 129/773/415 131/541/416 78/532/391
f 78/532/391 131/541/416 132/774/417 80/750/392
f 80/750/392 132/774/417 134/775/418 81/751/393
f 81/751/393 134/775/418 137/776/419 84/752/394
f 84/752/394 137/776/419 138/777/420 86/753/395
f 86/753/395 138/777/420 141/778/421 88/754/396
f 88/754/396 141/778/421 143/779/422 89/755/397
f 89/755/397 143/779/422 145/780/423 91/756/398
f 91/756/398 145/780/423 146/781/424 94/757/399
f 94/757/399 146/781/424 149/782/425 95/758/400
f 95/758/400 149/782/425 150/783/426 97/759/401
f 97/759/401 150/783/426 152/784/427 100/760/402
f 100/760/402 152/784/427 155/785/428 101/761/403
f 101/761/403 155/785/428 156/786/429 104/762/404
f 104/762/404 156/786/429 158/763/405 105/739/380
f 158/763/405 212/787/430 160/788/431 107/764/406
f 107/765/406 160/789/431 163/790/432 109/766/407
f 109/766/407 163/790/432 164/791/433 112/767/408
f 778/768/409 112/767/408 164/791/433 774/792/434
f 786/793/435 173/545/436 121/537/411 785/769/410
f 121/537/411 173/545/436 176/794/437 123/770/412
f 123/770/412 176/794/437 177/795/438 125/771/413
f 125/771/413 177/795/438 180/796/439 127/772/414
f 127/772/414 180/796/439 181/797/440 129/773/415
f 129/773/415 181/797/440 184/550/441 131/541/416
f 131/541/416 184/550/441 185/798/442 132/774/417
f 132/774/417 185/798/442 188/799/443 134/775/418
f 134/775/418 188/799/443 190/800/444 137/776/419
f 137/776/419 190/800/444 192/801/445 138/777/420
f 138/777/420 192/801/445 193/802/446 141/778/421
f 141/778/421 193/802/446 196/803/447 143/779/422
f 143/779/422 196/803/447 198/804/448 145/780/423
f 145/780/423 198/804/448 200/805/449 146/781/424
f 146/781/424 200/805/449 202/806/450 149/782/425
f 149/782/425 202/806/450 204/807/451 150/783/426
f 150/783/426 204/807/451 206/808/452 152/784/427
f 152/784/427 206/808/452 208/809/453 155/785/428
f 155/785/428 208/809/453 210/810/454 156/786/429
f 156/786/429 210/810/454 212/787/430 158/763/405
f 212/787/430 264/811/455 213/812/456 160/788/431
f 160/789/431 213/813/456 215/814/457 163/790/432
f 163/790/432 215/814/457 218/815/458 164/791/433
f 774/792/434 164/791/433 218/815/458 769/816/459
f 790/817/460 227/554/461 173/545/436 786/793/435
f 173/545/436 227/554/461 228/818/462 176/794/437
f 176/794/437 228/818/462 230/819/463 177/795/438
f 177/795/438 230/819/463 233/820/464 180/796/439
f 180/796/439 233/820/464 234/821/465 181/797/440
f 181/797/440 234/821/465 237/559/466 184/550/441
f 184/550/441 237/559/466 239/822/467 185/798/442
f 185/798/442 239/822/467 240/823/468 188/799/443
f 188/799/443 240/823/468 242/824/469 190/800/444
f 190/800/444 242/824/469 245/825/470 192/801/445
f 192/801/445 245/825/470 246/826/471 193/802/446
f 193/802/446 246/826/471 249/827/472 196/803/447
f 196/803/447 249/827/472 251/828/473 198/804/448
f 198/804/448 251/828/473 252/829/474 200/805/449
f 200/805/449 252/829/474 254/830/475 202/806/450
f 202/806/450 254/830/475 257/831/476 204/807/451
f 204/807/451 257/831/476 258/832/477 206/808/452
f 206/808/452 258/832/477 260/833/478 208/809/453
f 208/809/453 260/833/478 263/834/479 210/810/454
f 210/810/454 263/834/479 264/811/455 212/787/430
f 264/811/455 318/835/480 267/836/481 213/812/456
f 213/813/456 267/837/481 269/838/482 215/814/457
f 215/814/457 269/838/482 270/839/483 218/815/458
f 769/816/459 218/815/458 270/839/483 775/840/484
f 787/841/485 280/563/486 227/554/461 790/817/460
f 227/554/461 280/563/486 282/842/487 228/818/462
f 228/818/462 282/842/487 284/843/488 230/819/463
f 230/819/463 284/843/488 285/844/489 233/820/464
f 233/820/464 285/844/489 287/845/490 234/821/465
f 234/821/465 287/845/490 289/568/491 237/559/466
f 237/559/466 289/568/491 291/846/492 239/822/467
f 239/822/467 291/846/492 294/847/493 240/823/468
f 240/823/468 294/847/493 296/848/494 242/824/469
f 242/824/469 296/848/494 297/849/495 245/825/470
f 245/825/470 297/849/495 299/850/496 246/826/471
f 246/826/471 299/850/496 301/851/497 249/827/472
f 249/827/472 301/851/497 303/852/498 251/828/473
f 251/828/473 303/852/498 306/853/499 252/829/474
f 252/829/474 306/853/499 308/854/500 254/830/475
f 254/830/475 308/854/500 309/855/501 257/831/476
f 257/831/476 309/855/501 311/856/502 258/832/477
f 258/832/477 311/856/502 313/857/503 260/833/478
f 260/833/478 313/857/503 316/858/504 263/834/479
f 263/834/479 316/858/504 318/835/480 264/811/455
f 318/835/480 371/859/505 319/860/506 267/836/481
f 267/837/481 319/861/506 322/862/507 269/838/482
f 269/838/482 322/862/507 323/863/508 270/839/483
f 270/839/483 323/863/508 776/864/509 775/840/484
f 788/865/510 333/572/511 280/563/486 787/841/485
f 280/563/486 333/572/511 334/866/512 282/842/487
f 282/842/487 334/866/512 337/867/513 284/843/488
f 284/843/488 337/867/513 339/868/514 285/844/489
f 285/844/489 339/868/514 340/869/515 287/845/490
f 287/845/490 340/869/515 343/577/516 289/568/491
f 289/568/491 343/577/516 345/870/517 291/846/492
f 291/846/492 345/870/517 346/871/518 294/847/493
f 294/847/493 346/871/518 349/872/519 296/848/494
f 296/848/494 349/872/519 350/873/520 297/849/495
f 297/849/495 350/873/520 352/874/521 299/850/496
f 299/850/496 352/874/521 354/875/522 301/851/497
f 301/851/497 354/875/522 356/876/523 303/852/498
f 303/852/498 356/876/523 358/877/524 306/853/499
f 306/853/499 358/877/524 361/878/525 308/854/500
f 308/854/500 361/878/525 363/879/526 309/855/501
f 309/855/501 363/879/526 365/880/527 311/856/502
f 311/856/502 365/880/527 367/881/528 313/857/503
f 313/857/503 367/881/528 369/882/529 316/858/504
f 316/858/504 369/882/529 371/859/505 318/835/480
f 371/859/505 424/883/530 372/884/531 319/860/506
f 319/861/506 372/885/531 375/886/532 322/862/507
f 322/862/507 375/886/532 376/887/533 323/863/508
f 323/863/508 376/887/533 777/888/534 776/864/509
f 789/889/535 386/581/536 333/572/511 788/865/510
f 333/572/511 386/581/536 388/890/537 334/866/512
f 334/866/512 388/890/537 390/891/538 337/867/513
f 337/867/513 390/891/538 391/892/539 339/868/514
f 339/868/514 391/892/539 393/893/540 340/869/515
f 340/869/515 393/893/540 396/586/541 343/577/516
f 343/577/516 396/586/541 397/894/542 345/870/517
f 345/870/517 397/894/542 399/895/543 346/871/518
f 346/871/518 399/895/543 401/896/544 349/872/519
f 349/872/519 401/896/544 404/897/545 350/873/520
f 350/873/520 404/897/545 406/898/546 352/874/521
f 352/874/521 406/898/546 408/899/547 354/875/522
f 354/875/522 408/899/547 410/900/548 356/876/523
f 356/876/523 410/900/548 412/901/549 358/877/524
f 358/877/524 412/901/549 413/902/550 361/878/525
f 361/878/525 413/902/550 416/903/551 363/879/526
f 363/879/526 416/903/551 418/904/552 365/880/527
f 365/880/527 418/904/552 420/905/553 367/881/528
f 367/881/528 420/905/553 422/906/554 369/882/529
f 369/882/529 422/906/554 424/883/530 371/859/505
f 424/883/530 476/907/555 426/908/556 372/884/531
f 372/885/531 426/909/556 428/910/557 375/886/532
f 375/886/532 428/910/557 429/911/558 376/887/533
f 376/887/533 429/911/558 779/912/559 777/888/534
f 784/913/560 438/590/561 386/581/536 789/889/535
f 386/581/536 438/590/561 441/914/562 388/890/537
f 388/890/537 441/914/562 442/915/563 390/891/538
f 390/891/538 442/915/563 444/916/564 391/892/539
f 391/892/539 444/916/564 447/917/565 393/893/540
f 393/893/540 447/917/565 448/595/566 396/586/541
f 396/586/541 448/595/566 450/918/567 397/894/542
f 397/894/542 450/918/567 452/919/568 399/895/543
f 399/895/543 452/919/568 455/920/569 401/896/544
f 401/896/544 455/920/569 457/921/570 404/897/545
f 404/897/545 457/921/570 459/922/571 406/898/546
f 406/898/546 459/922/571 460/923/572 408/899/547
f 408/899/547 460/923/572 462/924/573 410/900/548
f 410/900/548 462/924/573 464/925/574 412/901/549
f 412/901/549 464/925/574 467/926/575 413/902/550
f 413/902/550 467/926/575 469/927/576 416/903/551
f 416/903/551 469/927/576 470/928/577 418/904/552
f 418/904/552 470/928/577 472/929/578 420/905/553
f 420/905/553 472/929/578 474/930/579 422/906/554
f 422/906/554 474/930/579 476/907/555 424/883/530
f 476/907/555 530/931/580 478/14/581 426/908/556
f 426/909/556 478/932/581 480/933/582 428/910/557
f 428/910/557 480/933/582 482/934/583 429/911/558
f 779/912/559 429/911/558 482/934/583 773/935/584
f 782/936/585 491/600/586 438/590/561 784/913/560
f 438/590/561 491/600/586 494/937/587 441/914/562
f 441/914/562 494/937/587 495/938/588 442/915/563
f 442/915/563 495/938/588 498/939/589 444/916/564
f 444/916/564 498/939/589 499/940/590 447/917/565
f 447/917/565 499/940/590 502/604/591 448/595/566
f 448/595/566 502/604/591 503/941/592 450/918/567
f 450/918/567 503/941/592 505/942/593 452/919/568
f 452/919/568 505/942/593 508/943/594 455/920/569
f 455/920/569 508/943/594 510/944/595 457/921/570
f 457/921/570 510/944/595 512/945/596 459/922/571
f 459/922/571 512/945/596 514/946/597 460/923/572
f 460/923/572 514/946/597 515/947/598 462/924/573
f 462/924/573 515/947/598 518/948/599 464/925/574
f 464/925/574 518/948/599 520/949/600 467/926/575
f 467/926/575 520/949/600 522/950/601 469/927/576
f 469/927/576 522/950/601 523/951/602 470/928/577
f 470/928/577 523/951/602 525/952/603 472/929/578
f 472/929/578 525/952/603 527/953/604 474/930/579
f 474/930/579 527/953/604 530/931/580 476/907/555
f 530/931/580 582/954/605 532/362/606 478/14/581
f 478/932/581 532/955/606 533/956/607 480/933/582
f 480/933/582 533/956/607 535/957/608 482/934/583
f 773/935/584 482/934/583 535/957/608 772/958/609
f 781/959/610 544/609/611 491/600/586 782/936/585
f 491/600/586 544/609/611 547/960/612 494/937/587
f 494/937/587 547/960/612 549/961/613 495/938/588
f 495/938/588 549/961/613 550/962/614 498/939/589
f 498/939/589 550/962/614 552/963/615 499/940/590
f 499/940/590 552/963/615 554/613/616 502/604/591
f 502/604/591 554/613/616 557/964/617 503/941/592
f 503/941/592 557/964/617 559/965/618 505/942/593
f 505/942/593 559/965/618 560/966/619 508/943/594
f 508/943/594 560/966/619 563/967/620 510/944/595
f 510/944/595 563/967/620 564/968/621 512/945/596
f 512/945/596 564/968/621 566/969/622 514/946/597
f 514/946/597 566/969/622 568/970/623 515/947/598
f 515/947/598 568/970/623 570/971/624 518/948/599
f 518/948/599 570/971/624 573/972/625 520/949/600
f 520/949/600 573/972/625 574/973/626 522/950/601
f 522/950/601 574/973/626 576/974/627 523/951/602
f 523/951/602 576/974/627 578/975/628 525/952/603
f 525/952/603 578/975/628 580/976/629 527/953/604
f 527/953/604 580/976/629 582/954/605 530/931/580
f 645/977/630 532/362/606 582/954/605 647/978/631
f 645/979/630 648/980/632 533/956/607 532/955/606
f 533/956/607 648/980/632 650/981/633 535/957/608
f 762/982/634 737/983/635 738/984/635 739/985/635 747/986/635 748/987/635 751/988/635 772/958/609 535/957/608 650/981/633 652/989/636
f 652/989/636 654/990/637 723/991/638 725/992/639 762/982/634
f 654/990/637 657/993/640 759/994/641 719/995/642 721/996/642 723/991/638
f 657/993/640 659/997/643 760/998/644 759/994/641
f 659/997/643 661/999/645 761/1000/646 760/998/644
f 761/1000/646 661/999/645 662/1001/647 724/1002/648 722/1003/649 720/1004/649
f 662/1001/647 665/1005/650 763/1006/651 726/1007/652 724/1002/648
f 736/1008/653 735/1009/653 763/1006/651 665/1005/650 666/1010/654 544/609/611 781/959/610 752/1011/653 750/1012/653 749/1013/653 740/1014/653
f 668/1015/655 547/960/612 544/609/611 666/1010/654
f 670/1016/656 549/961/613 547/960/612 668/1015/655
f 672/1017/657 550/962/614 549/961/613 670/1016/656
f 674/1018/658 552/963/615 550/962/614 672/1017/657
f 676/1019/659 554/613/616 552/963/615 674/1018/658
f 678/1020/660 557/964/617 554/613/616 676/1019/659
f 678/1020/660 680/1021/661 559/965/618 557/964/617
f 680/1021/661 682/1022/662 560/966/619 559/965/618
f 684/1023/663 563/967/620 560/966/619 682/1022/662
f 687/1024/664 564/968/621 563/967/620 684/1023/663
f 688/1025/665 566/969/622 564/968/621 687/1024/664
f 690/1026/666 568/970/623 566/969/622 688/1025/665
f 692/1027/667 570/971/624 568/970/623 690/1026/666
f 695/1028/668 573/972/625 570/971/624 692/1027/667
f 697/1029/669 574/973/626 573/972/625 695/1028/668
f 699/1030/670 576/974/627 574/973/626 697/1029/669
f 701/1031/671 578/975/628 576/974/627 699/1030/670
f 702/1032/672 580/976/629 578/975/628 701/1031/671
f 647/978/631 582/954/605 580/976/629 702/1032/672
f 672/1017/657 670/1016/656 668/1015/655 666/1010/654 665/1005/650 662/1001/647 661/999/645 659/997/643 657/993/640 654/990/637 652/989/636 650/981/633 648/980/632 645/979/630 647/978/631 702/1032/672 701/1031/671 699/1030/670 697/1029/669 695/1028/668 692/1027/667 690/1026/666 688/1025/665 687/1024/664 684/1023/663 682/1022/662 680/1021/661 678/1020/660 676/1019/659 674/1018/658
f 643/736/378 587/637/313 584/641/312 588/640/316 591/644/318 593/657/322 595/656/325 597/666/328 599/665/331 601/669/333 603/677/335 605/689/338 607/691/343 608/694/344 611/697/346 612/700/348 615/703/350 617/705/352 619/708/354 621/707/356 623/713/358 625/712/360 627/718/362 628/721/364 631/720/366 633/726/368 635/725/370 637/731/372 639/734/374 641/737/376
