<svg xmlns="http://www.w3.org/2000/svg" xmlns:xlink="http://www.w3.org/1999/xlink" width="24" height="24" fill="none" stroke="#fff" stroke-linecap="round" stroke-linejoin="round" stroke-width="2" viewBox="0 0 24 24"><defs><linearGradient id="a"><stop offset="0" style="stop-color:#5e5ef7;stop-opacity:1"/><stop offset="1" style="stop-color:#0c600c;stop-opacity:1"/></linearGradient><linearGradient id="b"><stop offset="0" style="stop-color:#8080ff;stop-opacity:1"/><stop offset="1" style="stop-color:green;stop-opacity:1"/></linearGradient><linearGradient xlink:href="#a" id="c" x1="6.965" x2="15.381" y1="5.844" y2="21.41" gradientUnits="userSpaceOnUse"/><linearGradient xlink:href="#b" id="d" x1="6.965" x2="15.381" y1="5.844" y2="21.41" gradientUnits="userSpaceOnUse"/></defs><path fill="url(#pattern2_2311_1247)" d="M20.683 14.491a2.614 2.614 0 1 1-2.352 3.97l-3.265 5.513-5.513-3.265a2.614 2.614 0 1 1-3.97-2.352L.026 15.066 8.934.026l5.557 3.291a2.614 2.614 0 1 0 3.97 2.352l5.513 3.265z" style="fill:url(#c);stroke-width:.0512625;fill-opacity:1"/><path d="M9.057.504.504 14.944l5.256 3.113a.35.35 0 0 1 .004.6 2.25 2.25 0 0 0-.772.78 2.26 2.26 0 0 0 .793 3.104 2.26 2.26 0 0 0 3.104-.795c.197-.333.298-.693.314-1.053a.35.35 0 0 1 .527-.285l5.213 3.088 3.088-5.213a.35.35 0 0 1 .6-.004 2.26 2.26 0 0 0 3.883-.021 2.26 2.26 0 0 0-1.846-3.416.35.35 0 0 1-.285-.528l3.113-5.257-4.775-2.83a2.9 2.9 0 0 1-.32.835 2.97 2.97 0 0 1-4.061 1.04 2.97 2.97 0 0 1-1.041-4.061 3 3 0 0 1 .578-.684Z" style="fill:url(#d);fill-opacity:1;stroke:#fff;stroke-width:1;stroke-dasharray:none;stroke-opacity:.499413"/></svg>